<svg width="880" height="650" viewBox="0 0 880 650" fill="none" xmlns="http://www.w3.org/2000/svg">
<g clip-path="url(#clip0)">
<path d="M168.674 297.933C245.316 297.933 307.446 240.731 307.446 170.168C307.446 99.6056 245.316 42.4033 168.674 42.4033C92.0333 42.4033 29.9033 99.6056 29.9033 170.168C29.9033 240.731 92.0333 297.933 168.674 297.933Z" stroke="#6C63FF" stroke-width="2" stroke-miterlimit="10" stroke-dasharray="12 12"/>
<path d="M168.674 325.035C261.573 325.035 336.882 255.699 336.882 170.168C336.882 84.6378 261.573 15.3017 168.674 15.3017C75.7758 15.3017 0.466797 84.6378 0.466797 170.168C0.466797 255.699 75.7758 325.035 168.674 325.035Z" stroke="#6C63FF" stroke-width="2" stroke-miterlimit="10" stroke-dasharray="12 12"/>
<path d="M281.252 219.506C281.255 210.805 277.731 202.417 271.37 195.983C265.009 189.548 256.269 185.53 246.86 184.716C237.452 183.901 228.051 186.348 220.499 191.578C212.947 196.808 207.786 204.445 206.026 212.993L89.4072 210.081L90.6875 228.527C90.6875 228.527 74.0583 263.854 161.456 273.266V308.972H262.493V249.606C268.198 246.53 272.931 242.134 276.222 236.854C279.513 231.574 281.247 225.594 281.252 219.506V219.506Z" fill="url(#paint0_linear)"/>
<path d="M94.6911 229.301C94.6911 229.301 78.7675 263.131 162.465 272.156V306.365H259.226V215.772L93.4482 211.634L94.6911 229.301Z" fill="#BE7C5E"/>
<path d="M143.052 88.1277C140.529 91.7932 136.532 94.3905 131.936 95.3521C127.34 96.3137 122.517 95.5615 118.521 93.2598L66.5686 61.7401C62.5873 59.4172 59.7663 55.738 58.7219 51.5063C57.6774 47.2746 58.4944 42.8343 60.9944 39.1554V39.1554C63.5172 35.4946 67.5099 32.9007 72.1016 31.9393C76.6933 30.9779 81.5117 31.7271 85.506 34.0233L137.459 65.543C141.443 67.8631 144.268 71.541 145.316 75.773C146.364 80.0049 145.55 84.4467 143.052 88.1277V88.1277Z" fill="url(#paint1_linear)"/>
<path d="M140.173 86.4069C137.828 89.8141 134.114 92.2283 129.841 93.1222C125.569 94.0161 121.086 93.317 117.372 91.1777L69.0636 61.8563C65.3629 59.6971 62.7407 56.2772 61.7698 52.3438C60.7989 48.4103 61.5582 44.2829 63.8818 40.8633V40.8633C66.2271 37.4561 69.9415 35.0419 74.2138 34.148C78.4861 33.2541 82.969 33.9531 86.6833 36.0925L134.982 65.3967C138.69 67.5547 141.317 70.9771 142.29 74.9148C143.263 78.8525 142.502 82.9848 140.173 86.4069V86.4069Z" fill="#BE7C5E"/>
<path d="M240.859 254.114C260.928 254.114 277.196 239.136 277.196 220.659C277.196 202.182 260.928 187.204 240.859 187.204C220.79 187.204 204.521 202.182 204.521 220.659C204.521 239.136 220.79 254.114 240.859 254.114Z" fill="#BE7C5E"/>
<path d="M234.317 0H95.1163C91.9552 0 89.3926 2.35935 89.3926 5.26976V245.081C89.3926 247.991 91.9552 250.35 95.1163 250.35H234.317C237.478 250.35 240.041 247.991 240.041 245.081V5.26976C240.041 2.35935 237.478 0 234.317 0Z" fill="url(#paint2_linear)"/>
<path d="M231.627 3.38556H97.799C94.2792 3.38556 91.4258 6.01262 91.4258 9.25328V241.106C91.4258 244.346 94.2792 246.973 97.799 246.973H231.627C235.147 246.973 238 244.346 238 241.106V9.25328C238 6.01262 235.147 3.38556 231.627 3.38556Z" fill="white"/>
<path d="M201.536 9.49418C201.112 12.0774 199.698 14.4357 197.549 16.1424C195.401 17.849 192.66 18.7914 189.822 18.7991H139.201C136.364 18.7904 133.624 17.8475 131.477 16.141C129.329 14.4344 127.916 12.0767 127.492 9.49418H100.672C99.9409 9.49361 99.2168 9.62572 98.5411 9.88295C97.8654 10.1402 97.2513 10.5175 96.7341 10.9933C96.2169 11.4691 95.8065 12.0341 95.5266 12.656C95.2466 13.2779 95.1025 13.9445 95.1025 14.6177V235.733C95.1019 236.406 95.2454 237.073 95.5248 237.695C95.8042 238.317 96.214 238.882 96.7308 239.358C97.2476 239.835 97.8613 240.212 98.5367 240.47C99.2122 240.728 99.9362 240.86 100.667 240.86H228.757C229.489 240.861 230.213 240.729 230.888 240.472C231.564 240.215 232.178 239.837 232.695 239.361C233.213 238.886 233.623 238.321 233.903 237.699C234.183 237.077 234.327 236.41 234.327 235.737V14.622C234.328 13.9488 234.184 13.2821 233.905 12.66C233.625 12.0379 233.215 11.4726 232.699 10.9963C232.182 10.5201 231.568 10.1423 230.893 9.88459C230.217 9.62684 229.493 9.49418 228.762 9.49418H201.536Z" fill="#E17E51"/>
<path d="M180.318 12.4065H149.522C149.006 12.4065 148.588 12.7917 148.588 13.2669V13.4261C148.588 13.9012 149.006 14.2864 149.522 14.2864H180.318C180.834 14.2864 181.253 13.9012 181.253 13.4261V13.2669C181.253 12.7917 180.834 12.4065 180.318 12.4065Z" fill="#DBDBDB"/>
<path d="M188.191 14.2864C188.867 14.2864 189.415 13.7818 189.415 13.1594C189.415 12.5369 188.867 12.0323 188.191 12.0323C187.515 12.0323 186.967 12.5369 186.967 13.1594C186.967 13.7818 187.515 14.2864 188.191 14.2864Z" fill="#DBDBDB"/>
<path d="M264.347 226.561C253.801 228.807 246.564 222.474 244.125 212.769L219.894 129.929C218.735 125.249 219.636 120.337 222.398 116.266C225.16 112.194 229.559 109.295 234.635 108.2V108.2C239.718 107.134 245.053 107.963 249.475 110.506C253.897 113.048 257.046 117.099 258.236 121.772L278.009 206.751C280.448 216.46 274.888 224.316 264.347 226.561Z" fill="url(#paint3_linear)"/>
<path d="M255.517 123.8C253.461 115.608 244.582 110.501 235.684 112.394C226.786 114.287 221.239 122.463 223.295 130.655L245.576 219.442C247.632 227.634 256.512 232.741 265.41 230.848C274.308 228.955 279.855 220.779 277.799 212.587L255.517 123.8Z" fill="#BE7C5E"/>
<path d="M277.042 295.171H138.738V324.854H277.042V295.171Z" fill="url(#paint4_linear)"/>
<path d="M273.305 298.613H142.477V321.843H273.305V298.613Z" fill="#4D8AF0"/>
<path d="M122.885 176.995C120.392 180.617 116.444 183.184 111.903 184.134C107.362 185.084 102.597 184.341 98.6488 182.067L63.8064 161.311C59.8725 159.016 57.0849 155.381 56.0527 151.2C55.0205 147.019 55.8276 142.632 58.2976 138.997V138.997C60.79 135.375 64.7381 132.809 69.2792 131.858C73.8204 130.908 78.5856 131.651 82.5335 133.925L117.376 154.682C121.31 156.976 124.097 160.611 125.13 164.792C126.162 168.973 125.355 173.36 122.885 176.995V176.995Z" fill="url(#paint5_linear)"/>
<path d="M114.138 220.93C111.624 224.585 107.64 227.175 103.058 228.135C98.4751 229.094 93.6666 228.344 89.6827 226.049L68.1008 211.561C64.1308 209.245 61.3175 205.578 60.2756 201.359C59.2338 197.14 60.0481 192.713 62.5406 189.045V189.045C65.0552 185.39 69.0389 182.799 73.6213 181.84C78.2037 180.881 83.0122 181.631 86.9961 183.926L108.578 198.418C112.547 200.734 115.359 204.401 116.401 208.618C117.443 212.836 116.629 217.263 114.138 220.93Z" fill="url(#paint6_linear)"/>
<g opacity="0.5">
<path opacity="0.5" d="M164.712 163.87C187.921 163.87 206.736 146.548 206.736 125.179C206.736 103.811 187.921 86.4887 164.712 86.4887C141.503 86.4887 122.688 103.811 122.688 125.179C122.688 146.548 141.503 163.87 164.712 163.87Z" fill="url(#paint7_linear)"/>
</g>
<path d="M164.712 161.595C186.556 161.595 204.264 145.291 204.264 125.179C204.264 105.068 186.556 88.7643 164.712 88.7643C142.868 88.7643 125.16 105.068 125.16 125.179C125.16 145.291 142.868 161.595 164.712 161.595Z" fill="#6C63FF"/>
<path d="M147.546 120.318L162.376 132.837L183.388 104.389L190.808 110.08L162.376 144.219L141.364 122.598L147.546 120.318Z" fill="white"/>
<path d="M112.395 219.85C110.05 223.257 106.336 225.672 102.063 226.566C97.791 227.459 93.308 226.76 89.5938 224.621L69.4649 211.13C65.7642 208.971 63.142 205.551 62.1711 201.618C61.2002 197.684 61.9595 193.557 64.2832 190.137V190.137C66.6284 186.73 70.3429 184.316 74.6152 183.422C78.8875 182.528 83.3704 183.227 87.0847 185.367L107.209 198.883C110.903 201.041 113.52 204.456 114.492 208.383C115.463 212.311 114.71 216.432 112.395 219.85V219.85Z" fill="#BE7C5E"/>
<path d="M120.969 175.855C118.624 179.262 114.909 181.677 110.637 182.571C106.365 183.464 101.882 182.765 98.1676 180.626L65.3858 161.096C61.6851 158.936 59.0629 155.517 58.092 151.583C57.1211 147.65 57.8804 143.522 60.2041 140.103V140.103C62.5493 136.695 66.2638 134.281 70.5361 133.387C74.8084 132.493 79.2913 133.192 83.0056 135.332L115.787 154.862C119.488 157.021 122.11 160.441 123.081 164.375C124.052 168.308 123.293 172.436 120.969 175.855Z" fill="#BE7C5E"/>
<path d="M131.893 133.267C129.389 136.905 125.422 139.482 120.86 140.437C116.298 141.391 111.511 140.645 107.545 138.36L63.3907 111.891C59.4394 109.585 56.6398 105.933 55.6033 101.733C54.5667 97.5329 55.3775 93.1258 57.8585 89.4741C60.3632 85.8363 64.3297 83.2587 68.8916 82.3044C73.4536 81.3501 78.2404 82.0965 82.2066 84.3807L126.361 110.85C130.312 113.156 133.112 116.808 134.148 121.008C135.185 125.208 134.374 129.615 131.893 133.267Z" fill="url(#paint8_linear)"/>
<path d="M129.548 131.89C127.203 135.298 123.488 137.712 119.216 138.606C114.944 139.5 110.461 138.8 106.746 136.661L65.3907 111.87C61.69 109.71 59.0678 106.291 58.0969 102.357C57.126 98.4236 57.8853 94.2962 60.209 90.8766V90.8766C62.5542 87.4694 66.2687 85.0551 70.541 84.1613C74.8133 83.2674 79.2962 83.9664 83.0104 86.1058L124.361 110.897C128.063 113.056 130.686 116.475 131.658 120.409C132.63 124.342 131.871 128.47 129.548 131.89V131.89Z" fill="#BE7C5E"/>
</g>
<g clip-path="url(#clip1)">
<path d="M552.642 517.866C552.642 517.866 552.355 517.004 551.891 515.401" stroke="#6C63FF" stroke-width="9" stroke-miterlimit="10"/>
<path d="M550.53 510.401C540.264 470.06 508.257 284.138 829.111 400.205" stroke="#6C63FF" stroke-width="9" stroke-miterlimit="10" stroke-dasharray="12.04 12.04"/>
<path d="M831.515 401.067L833.901 401.929" stroke="#6C63FF" stroke-width="9" stroke-miterlimit="10"/>
<path d="M794.6 544.454C794.602 535.737 791.417 527.333 785.668 520.886C779.919 514.44 772.019 510.414 763.515 509.598C755.011 508.782 746.515 511.234 739.689 516.474C732.863 521.713 728.199 529.364 726.608 537.929L621.204 535.011L622.361 553.492C622.361 553.492 607.331 588.885 686.324 598.315V634.088H777.644V574.611C782.801 571.529 787.079 567.124 790.054 561.835C793.028 556.545 794.595 550.553 794.6 544.454V544.454Z" fill="url(#paint9_linear)"/>
<path d="M625.981 554.268C625.981 554.268 611.588 588.161 687.237 597.203V631.476H774.693V540.709L624.857 536.567L625.981 554.268Z" fill="#F6B9AD"/>
<path d="M669.689 412.828C667.409 416.501 663.797 419.103 659.643 420.066C655.489 421.03 651.13 420.276 647.518 417.97L600.561 386.391C596.963 384.064 594.413 380.378 593.469 376.138C592.525 371.899 593.264 367.45 595.523 363.764C597.803 360.096 601.412 357.498 605.562 356.534C609.712 355.571 614.067 356.322 617.678 358.622L664.634 390.201C668.235 392.526 670.789 396.211 671.736 400.451C672.683 404.69 671.947 409.141 669.689 412.828V412.828Z" fill="url(#paint10_linear)"/>
<path d="M667.088 411.1C664.968 414.514 661.611 416.932 657.75 417.828C653.888 418.724 649.836 418.023 646.479 415.88L602.817 386.525C599.472 384.362 597.102 380.935 596.224 376.994C595.347 373.054 596.033 368.918 598.133 365.492V365.492C600.253 362.079 603.61 359.66 607.472 358.764C611.333 357.869 615.385 358.569 618.742 360.713L662.396 390.072C665.741 392.234 668.112 395.659 668.991 399.599C669.87 403.538 669.186 407.673 667.088 411.1V411.1Z" fill="#F6B9AD"/>
<path d="M758.087 579.127C776.226 579.127 790.93 564.121 790.93 545.609C790.93 527.097 776.226 512.091 758.087 512.091C739.948 512.091 725.244 527.097 725.244 545.609C725.244 564.121 739.948 579.127 758.087 579.127Z" fill="#F6B9AD"/>
<path d="M752.175 324.535H626.361C623.504 324.535 621.188 326.899 621.188 329.815V570.077C621.188 572.992 623.504 575.356 626.361 575.356H752.175C755.032 575.356 757.349 572.992 757.349 570.077V329.815C757.349 326.899 755.032 324.535 752.175 324.535Z" fill="url(#paint11_linear)"/>
<path d="M749.747 327.927H628.789C625.607 327.927 623.028 330.559 623.028 333.806V566.094C623.028 569.341 625.607 571.973 628.789 571.973H749.747C752.928 571.973 755.507 569.341 755.507 566.094V333.806C755.507 330.559 752.928 327.927 749.747 327.927Z" fill="white"/>
<path d="M722.55 334.043C722.167 336.631 720.889 338.994 718.947 340.703C717.005 342.413 714.528 343.358 711.963 343.365H666.21C663.646 343.356 661.17 342.412 659.229 340.702C657.288 338.992 656.01 336.63 655.627 334.043H631.386C630.726 334.042 630.071 334.175 629.46 334.432C628.85 334.69 628.295 335.068 627.827 335.545C627.36 336.021 626.989 336.587 626.736 337.211C626.483 337.834 626.353 338.501 626.353 339.176V560.707C626.352 561.381 626.482 562.049 626.734 562.672C626.987 563.296 627.357 563.862 627.824 564.339C628.291 564.816 628.846 565.195 629.456 565.453C630.067 565.711 630.721 565.844 631.382 565.844H747.154C747.815 565.845 748.47 565.712 749.08 565.455C749.691 565.197 750.246 564.819 750.714 564.342C751.181 563.866 751.552 563.299 751.805 562.676C752.058 562.053 752.188 561.385 752.188 560.711V339.18C752.189 338.506 752.059 337.838 751.806 337.215C751.554 336.591 751.184 336.025 750.716 335.548C750.249 335.071 749.695 334.692 749.084 334.434C748.474 334.176 747.819 334.043 747.158 334.043H722.55Z" fill="#E17E51"/>
<path d="M703.373 336.965H675.539C675.072 336.965 674.694 337.351 674.694 337.827V337.986C674.694 338.462 675.072 338.848 675.539 338.848H703.373C703.84 338.848 704.218 338.462 704.218 337.986V337.827C704.218 337.351 703.84 336.965 703.373 336.965Z" fill="#DBDBDB"/>
<path d="M710.489 338.848C711.1 338.848 711.596 338.343 711.596 337.719C711.596 337.096 711.1 336.59 710.489 336.59C709.878 336.59 709.383 337.096 709.383 337.719C709.383 338.343 709.878 338.848 710.489 338.848Z" fill="#DBDBDB"/>
<path d="M779.321 551.518C769.789 553.768 763.248 547.423 761.043 537.7L739.142 454.708C738.095 450.019 738.909 445.098 741.405 441.019C743.902 436.941 747.878 434.036 752.466 432.939V432.939C757.06 431.87 761.882 432.701 765.879 435.248C769.876 437.796 772.722 441.854 773.797 446.536L791.669 531.658C793.873 541.398 788.848 549.268 779.321 551.518Z" fill="url(#paint12_linear)"/>
<path d="M771.34 448.572C769.482 440.365 761.456 435.248 753.413 437.145C745.371 439.041 740.358 447.232 742.216 455.44L762.355 544.394C764.213 552.601 772.239 557.718 780.281 555.821C788.324 553.925 793.337 545.734 791.479 537.526L771.34 448.572Z" fill="#F6B9AD"/>
<path d="M790.796 620.261H665.792V650H790.796V620.261Z" fill="url(#paint13_linear)"/>
<path d="M787.417 623.709H669.17V646.983H787.417V623.709Z" fill="#6C63FF"/>
<path d="M717.157 403.14L707.47 395.696L711.693 390.094L704.644 384.448L700.24 390.145L690.277 382.495C689.898 382.205 689.436 382.047 688.962 382.047C688.487 382.047 688.026 382.205 687.646 382.495L661.239 402.558C660.238 403.42 659.301 404.407 659.292 406.665H659.263L659.195 437.576V438.951C659.194 439.394 659.279 439.832 659.443 440.241C659.608 440.651 659.851 441.023 660.157 441.337C660.462 441.651 660.826 441.9 661.226 442.07C661.626 442.241 662.056 442.329 662.489 442.33H663.79L688.829 442.386L715.172 442.446C715.606 442.447 716.036 442.361 716.437 442.193C716.838 442.025 717.203 441.777 717.51 441.465C717.818 441.153 718.062 440.782 718.229 440.374C718.396 439.965 718.482 439.527 718.483 439.085L718.555 406.855H718.61C718.61 404.592 718.158 404.002 717.157 403.14Z" fill="url(#paint14_linear)"/>
<path d="M716.008 407.325C716.008 405.265 715.586 404.739 714.682 403.941L690.159 385.12C689.812 384.854 689.391 384.711 688.957 384.711C688.524 384.711 688.102 384.854 687.756 385.12L663.663 403.428C663.084 403.851 662.617 404.415 662.307 405.07C661.998 405.724 661.854 406.448 661.889 407.174H661.864L661.801 435.378V436.632C661.8 437.448 662.116 438.23 662.679 438.808C663.243 439.386 664.009 439.712 664.808 439.714H665.994L688.841 439.766L712.875 439.822C713.674 439.823 714.441 439.5 715.007 438.925C715.573 438.349 715.892 437.568 715.894 436.753L715.958 407.346L716.008 407.325Z" fill="url(#paint15_linear)"/>
<path d="M662.307 407.287L715.446 407.41L715.379 437.247C715.379 437.484 715.333 437.718 715.244 437.937C715.154 438.155 715.024 438.353 714.86 438.52C714.695 438.687 714.5 438.819 714.286 438.909C714.072 438.999 713.842 439.045 713.61 439.045L664.2 438.93C663.684 438.929 663.189 438.719 662.825 438.345C662.46 437.972 662.256 437.466 662.258 436.939L662.324 407.287L662.307 407.287Z" fill="#E17E51"/>
<path opacity="0.2" d="M662.307 407.287L715.446 407.41L715.379 437.247C715.379 437.484 715.333 437.718 715.244 437.937C715.154 438.155 715.024 438.353 714.86 438.52C714.695 438.687 714.5 438.819 714.286 438.909C714.072 438.999 713.842 439.045 713.61 439.045L664.2 438.93C663.684 438.929 663.189 438.719 662.825 438.345C662.46 437.972 662.256 437.466 662.258 436.939L662.324 407.287L662.307 407.287Z" fill="white"/>
<path d="M662.312 407.277L662.253 434.684C662.252 435.237 662.357 435.785 662.564 436.296C662.77 436.808 663.073 437.272 663.455 437.664C663.838 438.056 664.292 438.367 664.792 438.58C665.292 438.792 665.829 438.902 666.37 438.904L711.258 439.007" fill="#F5F5F5"/>
<path d="M715.456 407.398L715.397 434.822C715.396 435.375 715.288 435.922 715.079 436.433C714.871 436.943 714.566 437.407 714.182 437.797C713.798 438.187 713.343 438.496 712.842 438.707C712.341 438.918 711.804 439.025 711.262 439.024L666.375 438.921" fill="white"/>
<path d="M687.752 385.835L664.103 403.635C663.534 404.043 663.077 404.591 662.772 405.227C662.467 405.864 662.325 406.569 662.358 407.277L715.523 407.45C715.523 405.445 715.101 404.92 714.222 404.161L690.129 385.844C689.787 385.58 689.371 385.437 688.942 385.435C688.513 385.433 688.096 385.574 687.752 385.835V385.835Z" fill="#E17E51"/>
<path opacity="0.2" d="M687.752 385.835L664.103 403.635C663.534 404.043 663.077 404.591 662.772 405.227C662.467 405.864 662.325 406.569 662.358 407.277L715.523 407.45C715.523 405.445 715.101 404.92 714.222 404.161L690.129 385.844C689.787 385.58 689.371 385.437 688.942 385.435C688.513 385.433 688.096 385.574 687.752 385.835V385.835Z" fill="black"/>
<path d="M709.699 392.029L703.268 386.883L687.722 406.976L679.369 400.364L674.137 407.152L686.295 416.63L689.31 419.099L709.699 392.029Z" fill="url(#paint16_linear)"/>
<path d="M709.226 391.904L703.398 387.344L687.955 407.898L679.378 401.187L674.905 407.135L686.396 416.117L689.344 418.371L709.226 391.904Z" fill="white"/>
<path d="M659.605 458.061C657.341 461.706 653.756 464.288 649.633 465.245C645.51 466.201 641.183 465.453 637.599 463.164L597.69 436.645C594.119 434.335 591.589 430.676 590.652 426.468C589.715 422.26 590.448 417.845 592.69 414.186V414.186C594.954 410.541 598.539 407.959 602.662 407.003C606.785 406.047 611.112 406.795 614.697 409.083L654.605 435.602C658.176 437.913 660.707 441.571 661.643 445.779C662.58 449.987 661.848 454.403 659.605 458.061V458.061Z" fill="url(#paint17_linear)"/>
<path d="M657.485 456.665C655.365 460.078 652.008 462.497 648.146 463.393C644.285 464.288 640.233 463.588 636.876 461.445L599.497 436.606C596.152 434.443 593.782 431.017 592.905 427.076C592.027 423.135 592.714 419 594.814 415.574V415.574C596.934 412.16 600.291 409.742 604.152 408.846C608.014 407.95 612.066 408.651 615.423 410.794L652.801 435.632C656.146 437.796 658.516 441.222 659.394 445.163C660.271 449.104 659.585 453.239 657.485 456.665V456.665Z" fill="#F6B9AD"/>
<path d="M651.463 501.859C649.21 505.488 645.642 508.059 641.537 509.011C637.433 509.963 633.126 509.219 629.557 506.94L598.062 486.145C594.506 483.846 591.986 480.204 591.053 476.015C590.121 471.826 590.85 467.431 593.083 463.789V463.789C595.335 460.16 598.904 457.589 603.008 456.637C607.113 455.685 611.419 456.429 614.988 458.708L646.479 479.508C650.035 481.806 652.554 485.446 653.488 489.634C654.422 493.822 653.693 498.217 651.463 501.859Z" fill="url(#paint18_linear)"/>
<path d="M643.557 545.881C641.285 549.543 637.684 552.138 633.542 553.099C629.401 554.06 625.055 553.308 621.454 551.009L601.947 536.485C598.359 534.165 595.816 530.491 594.875 526.264C593.933 522.037 594.669 517.601 596.922 513.927C599.197 510.267 602.799 507.676 606.941 506.718C611.082 505.761 615.427 506.514 619.026 508.815L638.532 523.335C642.117 525.655 644.657 529.327 645.599 533.551C646.54 537.774 645.806 542.207 643.557 545.881Z" fill="url(#paint19_linear)"/>
<path d="M641.981 544.799C639.862 548.212 636.504 550.631 632.643 551.527C628.782 552.422 624.73 551.722 621.373 549.578L603.184 536.037C599.839 533.873 597.469 530.447 596.591 526.506C595.714 522.565 596.4 518.43 598.5 515.004C600.62 511.591 603.977 509.172 607.839 508.276C611.7 507.381 615.752 508.081 619.109 510.224L637.298 523.766C640.643 525.93 643.013 529.356 643.89 533.297C644.768 537.237 644.082 541.373 641.981 544.799V544.799Z" fill="#F6B9AD"/>
<path d="M732.344 463.992H646.192V490.282H732.344V463.992Z" fill="url(#paint20_linear)"/>
<path d="M729.387 466.578H649.148V485.541H729.387V466.578Z" fill="#6C63FF"/>
<path d="M878.484 416.992L880 417.233L879.764 417.005H879.891L879.692 416.936L852.204 390.331L845.532 401.075L839.982 410.876L842.554 411.285L841.414 416.595L878.484 416.992Z" fill="url(#paint21_linear)"/>
<path d="M846.684 401.636L841.616 410.605L878.779 416.781L854.843 399.769L846.684 401.636Z" fill="#E17E51"/>
<path opacity="0.2" d="M846.684 401.636L841.616 410.605L878.779 416.781L854.843 399.769L846.684 401.636Z" fill="black"/>
<path d="M852.786 391.809L878.779 416.781L846.684 401.636L852.786 391.809Z" fill="#E17E51"/>
<path d="M842.984 415.876L878.678 416.569L845.358 404.493L842.984 415.876Z" fill="#E17E51"/>
<path d="M649.731 500.734C647.612 504.148 644.254 506.566 640.393 507.462C636.532 508.357 632.48 507.657 629.123 505.514L599.493 485.947C596.149 483.783 593.779 480.357 592.901 476.416C592.023 472.475 592.71 468.34 594.81 464.914V464.914C596.926 461.497 600.282 459.074 604.144 458.174C608.005 457.274 612.059 457.971 615.419 460.113L645.048 479.68C648.399 481.843 650.773 485.274 651.65 489.22C652.528 493.166 651.838 497.306 649.731 500.734V500.734Z" fill="#F6B9AD"/>
</g>
<path d="M479.992 116.384V128H476.488V116.384L463.048 94.4H466.84L478.36 113.264L489.88 94.4H493.432L479.992 116.384ZM505.681 128.24C503.249 128.24 501.057 127.696 499.105 126.608C497.153 125.488 495.617 123.952 494.497 122C493.377 120.048 492.817 117.84 492.817 115.376C492.817 112.912 493.377 110.704 494.497 108.752C495.617 106.8 497.153 105.28 499.105 104.192C501.057 103.104 503.249 102.56 505.681 102.56C508.113 102.56 510.305 103.104 512.257 104.192C514.209 105.28 515.729 106.8 516.817 108.752C517.937 110.704 518.497 112.912 518.497 115.376C518.497 117.84 517.937 120.048 516.817 122C515.729 123.952 514.209 125.488 512.257 126.608C510.305 127.696 508.113 128.24 505.681 128.24ZM505.681 125.216C507.473 125.216 509.073 124.816 510.481 124.016C511.921 123.184 513.041 122.016 513.841 120.512C514.641 119.008 515.041 117.296 515.041 115.376C515.041 113.456 514.641 111.744 513.841 110.24C513.041 108.736 511.921 107.584 510.481 106.784C509.073 105.952 507.473 105.536 505.681 105.536C503.889 105.536 502.273 105.952 500.833 106.784C499.425 107.584 498.305 108.736 497.473 110.24C496.673 111.744 496.273 113.456 496.273 115.376C496.273 117.296 496.673 119.008 497.473 120.512C498.305 122.016 499.425 123.184 500.833 124.016C502.273 124.816 503.889 125.216 505.681 125.216ZM548.207 102.752V128H544.943V123.392C544.047 124.928 542.815 126.128 541.247 126.992C539.679 127.824 537.887 128.24 535.871 128.24C532.575 128.24 529.967 127.328 528.047 125.504C526.159 123.648 525.215 120.944 525.215 117.392V102.752H528.623V117.056C528.623 119.712 529.279 121.728 530.591 123.104C531.903 124.48 533.775 125.168 536.207 125.168C538.863 125.168 540.959 124.368 542.495 122.768C544.031 121.136 544.799 118.88 544.799 116V102.752H548.207ZM561.016 107.696C561.816 106 563 104.72 564.568 103.856C566.168 102.992 568.136 102.56 570.472 102.56V105.872L569.656 105.824C567 105.824 564.92 106.64 563.416 108.272C561.912 109.904 561.16 112.192 561.16 115.136V128H557.752V102.752H561.016V107.696ZM604.988 128.288C601.66 128.288 598.636 127.552 595.916 126.08C593.228 124.576 591.116 122.528 589.58 119.936C588.076 117.344 587.324 114.432 587.324 111.2C587.324 107.968 588.076 105.056 589.58 102.464C591.116 99.872 593.228 97.84 595.916 96.368C598.636 94.864 601.66 94.112 604.988 94.112C608.316 94.112 611.308 94.848 613.964 96.32C616.652 97.792 618.764 99.84 620.3 102.464C621.836 105.056 622.604 107.968 622.604 111.2C622.604 114.432 621.836 117.36 620.3 119.984C618.764 122.576 616.652 124.608 613.964 126.08C611.308 127.552 608.316 128.288 604.988 128.288ZM604.988 125.12C607.644 125.12 610.044 124.528 612.188 123.344C614.332 122.128 616.012 120.464 617.228 118.352C618.444 116.208 619.052 113.824 619.052 111.2C619.052 108.576 618.444 106.208 617.228 104.096C616.012 101.952 614.332 100.288 612.188 99.104C610.044 97.888 607.644 97.28 604.988 97.28C602.332 97.28 599.916 97.888 597.74 99.104C595.596 100.288 593.9 101.952 592.652 104.096C591.436 106.208 590.828 108.576 590.828 111.2C590.828 113.824 591.436 116.208 592.652 118.352C593.9 120.464 595.596 122.128 597.74 123.344C599.916 124.528 602.332 125.12 604.988 125.12ZM633.11 107.696C633.91 106 635.094 104.72 636.662 103.856C638.262 102.992 640.23 102.56 642.566 102.56V105.872L641.75 105.824C639.094 105.824 637.014 106.64 635.51 108.272C634.006 109.904 633.254 112.192 633.254 115.136V128H629.846V102.752H633.11V107.696ZM671.542 92.384V128H668.278V123.008C667.254 124.704 665.894 126 664.198 126.896C662.534 127.792 660.646 128.24 658.534 128.24C656.166 128.24 654.022 127.696 652.102 126.608C650.182 125.52 648.678 124 647.59 122.048C646.502 120.096 645.958 117.872 645.958 115.376C645.958 112.88 646.502 110.656 647.59 108.704C648.678 106.752 650.182 105.248 652.102 104.192C654.022 103.104 656.166 102.56 658.534 102.56C660.582 102.56 662.422 102.992 664.054 103.856C665.718 104.688 667.078 105.92 668.134 107.552V92.384H671.542ZM658.822 125.216C660.582 125.216 662.166 124.816 663.574 124.016C665.014 123.184 666.134 122.016 666.934 120.512C667.766 119.008 668.182 117.296 668.182 115.376C668.182 113.456 667.766 111.744 666.934 110.24C666.134 108.736 665.014 107.584 663.574 106.784C662.166 105.952 660.582 105.536 658.822 105.536C657.03 105.536 655.414 105.952 653.974 106.784C652.566 107.584 651.446 108.736 650.614 110.24C649.814 111.744 649.414 113.456 649.414 115.376C649.414 117.296 649.814 119.008 650.614 120.512C651.446 122.016 652.566 123.184 653.974 124.016C655.414 124.816 657.03 125.216 658.822 125.216ZM703.017 116.432H681.897C682.089 119.056 683.097 121.184 684.921 122.816C686.745 124.416 689.049 125.216 691.833 125.216C693.401 125.216 694.841 124.944 696.153 124.4C697.465 123.824 698.601 122.992 699.561 121.904L701.481 124.112C700.361 125.456 698.953 126.48 697.257 127.184C695.593 127.888 693.753 128.24 691.737 128.24C689.145 128.24 686.841 127.696 684.825 126.608C682.841 125.488 681.289 123.952 680.169 122C679.049 120.048 678.489 117.84 678.489 115.376C678.489 112.912 679.017 110.704 680.073 108.752C681.161 106.8 682.633 105.28 684.489 104.192C686.377 103.104 688.489 102.56 690.825 102.56C693.161 102.56 695.257 103.104 697.113 104.192C698.969 105.28 700.425 106.8 701.481 108.752C702.537 110.672 703.065 112.88 703.065 115.376L703.017 116.432ZM690.825 105.488C688.393 105.488 686.345 106.272 684.681 107.84C683.049 109.376 682.121 111.392 681.897 113.888H699.801C699.577 111.392 698.633 109.376 696.969 107.84C695.337 106.272 693.289 105.488 690.825 105.488ZM713.266 107.696C714.066 106 715.25 104.72 716.818 103.856C718.418 102.992 720.386 102.56 722.722 102.56V105.872L721.906 105.824C719.25 105.824 717.17 106.64 715.666 108.272C714.162 109.904 713.41 112.192 713.41 115.136V128H710.002V102.752H713.266V107.696ZM754.694 102.56C757.862 102.56 760.374 103.488 762.23 105.344C764.118 107.168 765.062 109.84 765.062 113.36V128H761.654V113.696C761.654 111.072 760.998 109.072 759.686 107.696C758.374 106.32 756.502 105.632 754.07 105.632C751.35 105.632 749.19 106.448 747.59 108.08C746.022 109.68 745.238 111.904 745.238 114.752V128H741.83V92.384H745.238V107.168C746.166 105.696 747.446 104.56 749.078 103.76C750.71 102.96 752.582 102.56 754.694 102.56ZM783.147 102.56C786.443 102.56 788.971 103.392 790.731 105.056C792.491 106.688 793.371 109.12 793.371 112.352V128H790.107V124.064C789.339 125.376 788.203 126.4 786.699 127.136C785.227 127.872 783.467 128.24 781.419 128.24C778.603 128.24 776.363 127.568 774.699 126.224C773.035 124.88 772.203 123.104 772.203 120.896C772.203 118.752 772.971 117.024 774.507 115.712C776.075 114.4 778.555 113.744 781.947 113.744H789.963V112.208C789.963 110.032 789.355 108.384 788.139 107.264C786.923 106.112 785.147 105.536 782.811 105.536C781.211 105.536 779.675 105.808 778.203 106.352C776.731 106.864 775.467 107.584 774.411 108.512L772.875 105.968C774.155 104.88 775.691 104.048 777.483 103.472C779.275 102.864 781.163 102.56 783.147 102.56ZM781.947 125.552C783.867 125.552 785.515 125.12 786.891 124.256C788.267 123.36 789.291 122.08 789.963 120.416V116.288H782.043C777.723 116.288 775.562 117.792 775.562 120.8C775.562 122.272 776.123 123.44 777.243 124.304C778.363 125.136 779.931 125.552 781.947 125.552ZM809.395 128.24C807.347 128.24 805.379 127.952 803.491 127.376C801.635 126.768 800.179 126.016 799.123 125.12L800.659 122.432C801.715 123.264 803.043 123.952 804.643 124.496C806.243 125.008 807.907 125.264 809.635 125.264C811.939 125.264 813.635 124.912 814.723 124.208C815.843 123.472 816.403 122.448 816.403 121.136C816.403 120.208 816.099 119.488 815.491 118.976C814.883 118.432 814.115 118.032 813.187 117.776C812.259 117.488 811.027 117.216 809.491 116.96C807.443 116.576 805.795 116.192 804.547 115.808C803.299 115.392 802.227 114.704 801.331 113.744C800.467 112.784 800.035 111.456 800.035 109.76C800.035 107.648 800.915 105.92 802.675 104.576C804.435 103.232 806.883 102.56 810.019 102.56C811.651 102.56 813.283 102.784 814.915 103.232C816.547 103.648 817.891 104.208 818.947 104.912L817.459 107.648C815.379 106.208 812.899 105.488 810.019 105.488C807.843 105.488 806.195 105.872 805.075 106.64C803.987 107.408 803.443 108.416 803.443 109.664C803.443 110.624 803.747 111.392 804.355 111.968C804.995 112.544 805.779 112.976 806.707 113.264C807.635 113.52 808.915 113.792 810.547 114.08C812.563 114.464 814.179 114.848 815.395 115.232C816.611 115.616 817.651 116.272 818.515 117.2C819.379 118.128 819.811 119.408 819.811 121.04C819.811 123.248 818.883 125.008 817.027 126.32C815.203 127.6 812.659 128.24 809.395 128.24ZM480.76 161.56C483.128 161.56 485.272 162.104 487.192 163.192C489.112 164.248 490.616 165.752 491.704 167.704C492.792 169.656 493.336 171.88 493.336 174.376C493.336 176.872 492.792 179.096 491.704 181.048C490.616 183 489.112 184.52 487.192 185.608C485.272 186.696 483.128 187.24 480.76 187.24C478.648 187.24 476.744 186.792 475.048 185.896C473.384 185 472.04 183.704 471.016 182.008V187H467.752V151.384H471.16V166.552C472.216 164.92 473.56 163.688 475.192 162.856C476.856 161.992 478.712 161.56 480.76 161.56ZM480.52 184.216C482.28 184.216 483.88 183.816 485.32 183.016C486.76 182.184 487.88 181.016 488.68 179.512C489.512 178.008 489.928 176.296 489.928 174.376C489.928 172.456 489.512 170.744 488.68 169.24C487.88 167.736 486.76 166.584 485.32 165.784C483.88 164.952 482.28 164.536 480.52 164.536C478.728 164.536 477.112 164.952 475.672 165.784C474.264 166.584 473.144 167.736 472.312 169.24C471.512 170.744 471.112 172.456 471.112 174.376C471.112 176.296 471.512 178.008 472.312 179.512C473.144 181.016 474.264 182.184 475.672 183.016C477.112 183.816 478.728 184.216 480.52 184.216ZM522.267 175.432H501.147C501.339 178.056 502.347 180.184 504.171 181.816C505.995 183.416 508.299 184.216 511.083 184.216C512.651 184.216 514.091 183.944 515.403 183.4C516.715 182.824 517.851 181.992 518.811 180.904L520.731 183.112C519.611 184.456 518.203 185.48 516.507 186.184C514.843 186.888 513.003 187.24 510.987 187.24C508.395 187.24 506.091 186.696 504.075 185.608C502.091 184.488 500.539 182.952 499.419 181C498.299 179.048 497.739 176.84 497.739 174.376C497.739 171.912 498.267 169.704 499.323 167.752C500.411 165.8 501.883 164.28 503.739 163.192C505.627 162.104 507.739 161.56 510.075 161.56C512.411 161.56 514.507 162.104 516.363 163.192C518.219 164.28 519.675 165.8 520.731 167.752C521.787 169.672 522.315 171.88 522.315 174.376L522.267 175.432ZM510.075 164.488C507.643 164.488 505.595 165.272 503.931 166.84C502.299 168.376 501.371 170.392 501.147 172.888H519.051C518.827 170.392 517.883 168.376 516.219 166.84C514.587 165.272 512.539 164.488 510.075 164.488ZM551.236 175.432H530.116C530.308 178.056 531.316 180.184 533.14 181.816C534.964 183.416 537.268 184.216 540.052 184.216C541.62 184.216 543.06 183.944 544.372 183.4C545.684 182.824 546.82 181.992 547.78 180.904L549.7 183.112C548.58 184.456 547.172 185.48 545.476 186.184C543.812 186.888 541.972 187.24 539.956 187.24C537.364 187.24 535.06 186.696 533.044 185.608C531.06 184.488 529.508 182.952 528.388 181C527.268 179.048 526.708 176.84 526.708 174.376C526.708 171.912 527.236 169.704 528.292 167.752C529.38 165.8 530.852 164.28 532.708 163.192C534.596 162.104 536.708 161.56 539.044 161.56C541.38 161.56 543.476 162.104 545.332 163.192C547.188 164.28 548.644 165.8 549.7 167.752C550.756 169.672 551.284 171.88 551.284 174.376L551.236 175.432ZM539.044 164.488C536.612 164.488 534.564 165.272 532.9 166.84C531.268 168.376 530.34 170.392 530.116 172.888H548.02C547.796 170.392 546.852 168.376 545.188 166.84C543.556 165.272 541.508 164.488 539.044 164.488ZM571.085 161.56C574.253 161.56 576.765 162.488 578.621 164.344C580.509 166.168 581.453 168.84 581.453 172.36V187H578.045V172.696C578.045 170.072 577.389 168.072 576.077 166.696C574.765 165.32 572.893 164.632 570.461 164.632C567.741 164.632 565.581 165.448 563.981 167.08C562.413 168.68 561.629 170.904 561.629 173.752V187H558.221V161.752H561.485V166.408C562.413 164.872 563.693 163.688 565.325 162.856C566.989 161.992 568.909 161.56 571.085 161.56ZM616.564 153.4C620.852 153.4 624.212 154.424 626.644 156.472C629.076 158.52 630.292 161.336 630.292 164.92C630.292 168.504 629.076 171.32 626.644 173.368C624.212 175.384 620.852 176.392 616.564 176.392H607.54V187H603.988V153.4H616.564ZM616.468 173.272C619.796 173.272 622.34 172.552 624.1 171.112C625.86 169.64 626.74 167.576 626.74 164.92C626.74 162.2 625.86 160.12 624.1 158.68C622.34 157.208 619.796 156.472 616.468 156.472H607.54V173.272H616.468ZM637.721 151.384H641.129V187H637.721V151.384ZM659.443 161.56C662.739 161.56 665.267 162.392 667.027 164.056C668.787 165.688 669.667 168.12 669.667 171.352V187H666.403V183.064C665.635 184.376 664.499 185.4 662.995 186.136C661.523 186.872 659.763 187.24 657.715 187.24C654.899 187.24 652.659 186.568 650.995 185.224C649.331 183.88 648.499 182.104 648.499 179.896C648.499 177.752 649.267 176.024 650.803 174.712C652.371 173.4 654.851 172.744 658.243 172.744H666.259V171.208C666.259 169.032 665.651 167.384 664.435 166.264C663.219 165.112 661.443 164.536 659.107 164.536C657.507 164.536 655.971 164.808 654.499 165.352C653.027 165.864 651.763 166.584 650.707 167.512L649.171 164.968C650.451 163.88 651.987 163.048 653.779 162.472C655.571 161.864 657.459 161.56 659.443 161.56ZM658.243 184.552C660.163 184.552 661.811 184.12 663.187 183.256C664.563 182.36 665.587 181.08 666.259 179.416V175.288H658.339C654.019 175.288 651.859 176.792 651.859 179.8C651.859 181.272 652.419 182.44 653.539 183.304C654.659 184.136 656.227 184.552 658.243 184.552ZM689.482 187.24C686.986 187.24 684.746 186.696 682.762 185.608C680.81 184.52 679.274 183 678.154 181.048C677.034 179.064 676.474 176.84 676.474 174.376C676.474 171.912 677.034 169.704 678.154 167.752C679.274 165.8 680.81 164.28 682.762 163.192C684.746 162.104 686.986 161.56 689.482 161.56C691.658 161.56 693.594 161.992 695.29 162.856C697.018 163.688 698.378 164.92 699.37 166.552L696.826 168.28C695.994 167.032 694.938 166.104 693.658 165.496C692.378 164.856 690.986 164.536 689.482 164.536C687.658 164.536 686.01 164.952 684.538 165.784C683.098 166.584 681.962 167.736 681.13 169.24C680.33 170.744 679.93 172.456 679.93 174.376C679.93 176.328 680.33 178.056 681.13 179.56C681.962 181.032 683.098 182.184 684.538 183.016C686.01 183.816 687.658 184.216 689.482 184.216C690.986 184.216 692.378 183.912 693.658 183.304C694.938 182.696 695.994 181.768 696.826 180.52L699.37 182.248C698.378 183.88 697.018 185.128 695.29 185.992C693.562 186.824 691.626 187.24 689.482 187.24ZM727.627 175.432H706.507C706.699 178.056 707.707 180.184 709.531 181.816C711.355 183.416 713.659 184.216 716.443 184.216C718.011 184.216 719.451 183.944 720.763 183.4C722.075 182.824 723.211 181.992 724.171 180.904L726.091 183.112C724.971 184.456 723.563 185.48 721.867 186.184C720.203 186.888 718.363 187.24 716.347 187.24C713.755 187.24 711.451 186.696 709.435 185.608C707.451 184.488 705.899 182.952 704.779 181C703.659 179.048 703.099 176.84 703.099 174.376C703.099 171.912 703.627 169.704 704.683 167.752C705.771 165.8 707.243 164.28 709.099 163.192C710.987 162.104 713.099 161.56 715.435 161.56C717.771 161.56 719.867 162.104 721.723 163.192C723.579 164.28 725.035 165.8 726.091 167.752C727.147 169.672 727.675 171.88 727.675 174.376L727.627 175.432ZM715.435 164.488C713.003 164.488 710.955 165.272 709.291 166.84C707.659 168.376 706.731 170.392 706.507 172.888H724.411C724.187 170.392 723.243 168.376 721.579 166.84C719.947 165.272 717.899 164.488 715.435 164.488ZM757.651 151.384V187H754.387V182.008C753.363 183.704 752.003 185 750.307 185.896C748.643 186.792 746.755 187.24 744.643 187.24C742.275 187.24 740.131 186.696 738.211 185.608C736.291 184.52 734.787 183 733.699 181.048C732.611 179.096 732.067 176.872 732.067 174.376C732.067 171.88 732.611 169.656 733.699 167.704C734.787 165.752 736.291 164.248 738.211 163.192C740.131 162.104 742.275 161.56 744.643 161.56C746.691 161.56 748.531 161.992 750.163 162.856C751.827 163.688 753.187 164.92 754.243 166.552V151.384H757.651ZM744.931 184.216C746.691 184.216 748.275 183.816 749.683 183.016C751.123 182.184 752.243 181.016 753.043 179.512C753.875 178.008 754.291 176.296 754.291 174.376C754.291 172.456 753.875 170.744 753.043 169.24C752.243 167.736 751.123 166.584 749.683 165.784C748.275 164.952 746.691 164.536 744.931 164.536C743.139 164.536 741.523 164.952 740.083 165.784C738.675 166.584 737.555 167.736 736.723 169.24C735.923 170.744 735.523 172.456 735.523 174.376C735.523 176.296 735.923 178.008 736.723 179.512C737.555 181.016 738.675 182.184 740.083 183.016C741.523 183.816 743.139 184.216 744.931 184.216ZM766.615 153.4H770.647L769.927 176.92H767.287L766.615 153.4ZM768.631 187.24C767.927 187.24 767.319 187 766.807 186.52C766.327 186.008 766.087 185.416 766.087 184.744C766.087 184.04 766.327 183.464 766.807 183.016C767.287 182.536 767.895 182.296 768.631 182.296C769.335 182.296 769.927 182.536 770.407 183.016C770.887 183.464 771.127 184.04 771.127 184.744C771.127 185.416 770.887 186.008 770.407 186.52C769.927 187 769.335 187.24 768.631 187.24ZM779.083 153.4H783.115L782.395 176.92H779.755L779.083 153.4ZM781.099 187.24C780.395 187.24 779.787 187 779.275 186.52C778.795 186.008 778.555 185.416 778.555 184.744C778.555 184.04 778.795 183.464 779.275 183.016C779.755 182.536 780.363 182.296 781.099 182.296C781.803 182.296 782.395 182.536 782.875 183.016C783.355 183.464 783.595 184.04 783.595 184.744C783.595 185.416 783.355 186.008 782.875 186.52C782.395 187 781.803 187.24 781.099 187.24Z" fill="black"/>
<path d="M79.7345 479.28C84.0225 479.28 87.3825 480.304 89.8145 482.352C92.2465 484.4 93.4625 487.216 93.4625 490.8C93.4625 494.384 92.2465 497.2 89.8145 499.248C87.3825 501.264 84.0225 502.272 79.7345 502.272H70.7105V512.88H67.1585V479.28H79.7345ZM79.6385 499.152C82.9665 499.152 85.5105 498.432 87.2705 496.992C89.0305 495.52 89.9105 493.456 89.9105 490.8C89.9105 488.08 89.0305 486 87.2705 484.56C85.5105 483.088 82.9665 482.352 79.6385 482.352H70.7105V499.152H79.6385ZM100.892 477.264H104.3V512.88H100.892V477.264ZM135.766 501.312H114.646C114.838 503.936 115.846 506.064 117.67 507.696C119.494 509.296 121.798 510.096 124.582 510.096C126.15 510.096 127.59 509.824 128.902 509.28C130.214 508.704 131.35 507.872 132.31 506.784L134.23 508.992C133.11 510.336 131.702 511.36 130.006 512.064C128.342 512.768 126.502 513.12 124.486 513.12C121.894 513.12 119.59 512.576 117.574 511.488C115.59 510.368 114.038 508.832 112.918 506.88C111.798 504.928 111.238 502.72 111.238 500.256C111.238 497.792 111.766 495.584 112.822 493.632C113.91 491.68 115.382 490.16 117.238 489.072C119.126 487.984 121.238 487.44 123.574 487.44C125.91 487.44 128.006 487.984 129.862 489.072C131.718 490.16 133.174 491.68 134.23 493.632C135.286 495.552 135.814 497.76 135.814 500.256L135.766 501.312ZM123.574 490.368C121.142 490.368 119.094 491.152 117.43 492.72C115.798 494.256 114.87 496.272 114.646 498.768H132.55C132.326 496.272 131.382 494.256 129.718 492.72C128.086 491.152 126.038 490.368 123.574 490.368ZM150.88 487.44C154.176 487.44 156.704 488.272 158.464 489.936C160.224 491.568 161.104 494 161.104 497.232V512.88H157.84V508.944C157.072 510.256 155.936 511.28 154.432 512.016C152.96 512.752 151.2 513.12 149.152 513.12C146.336 513.12 144.096 512.448 142.432 511.104C140.768 509.76 139.936 507.984 139.936 505.776C139.936 503.632 140.704 501.904 142.24 500.592C143.808 499.28 146.288 498.624 149.68 498.624H157.696V497.088C157.696 494.912 157.088 493.264 155.872 492.144C154.656 490.992 152.88 490.416 150.544 490.416C148.944 490.416 147.408 490.688 145.936 491.232C144.464 491.744 143.2 492.464 142.144 493.392L140.608 490.848C141.888 489.76 143.424 488.928 145.216 488.352C147.008 487.744 148.896 487.44 150.88 487.44ZM149.68 510.432C151.6 510.432 153.248 510 154.624 509.136C156 508.24 157.024 506.96 157.696 505.296V501.168H149.776C145.456 501.168 143.296 502.672 143.296 505.68C143.296 507.152 143.856 508.32 144.976 509.184C146.096 510.016 147.664 510.432 149.68 510.432ZM177.128 513.12C175.08 513.12 173.112 512.832 171.224 512.256C169.368 511.648 167.912 510.896 166.856 510L168.392 507.312C169.448 508.144 170.776 508.832 172.376 509.376C173.976 509.888 175.64 510.144 177.368 510.144C179.672 510.144 181.368 509.792 182.456 509.088C183.576 508.352 184.136 507.328 184.136 506.016C184.136 505.088 183.832 504.368 183.224 503.856C182.616 503.312 181.848 502.912 180.92 502.656C179.992 502.368 178.76 502.096 177.224 501.84C175.176 501.456 173.528 501.072 172.28 500.688C171.032 500.272 169.96 499.584 169.064 498.624C168.2 497.664 167.768 496.336 167.768 494.64C167.768 492.528 168.648 490.8 170.408 489.456C172.168 488.112 174.616 487.44 177.752 487.44C179.384 487.44 181.016 487.664 182.648 488.112C184.28 488.528 185.624 489.088 186.68 489.792L185.192 492.528C183.112 491.088 180.632 490.368 177.752 490.368C175.576 490.368 173.928 490.752 172.808 491.52C171.72 492.288 171.176 493.296 171.176 494.544C171.176 495.504 171.48 496.272 172.088 496.848C172.728 497.424 173.512 497.856 174.44 498.144C175.368 498.4 176.648 498.672 178.28 498.96C180.296 499.344 181.912 499.728 183.128 500.112C184.344 500.496 185.384 501.152 186.248 502.08C187.112 503.008 187.544 504.288 187.544 505.92C187.544 508.128 186.616 509.888 184.76 511.2C182.936 512.48 180.392 513.12 177.128 513.12ZM215.829 501.312H194.709C194.901 503.936 195.909 506.064 197.733 507.696C199.557 509.296 201.861 510.096 204.645 510.096C206.213 510.096 207.653 509.824 208.965 509.28C210.277 508.704 211.413 507.872 212.373 506.784L214.293 508.992C213.173 510.336 211.765 511.36 210.069 512.064C208.405 512.768 206.565 513.12 204.549 513.12C201.957 513.12 199.653 512.576 197.637 511.488C195.653 510.368 194.101 508.832 192.981 506.88C191.861 504.928 191.301 502.72 191.301 500.256C191.301 497.792 191.829 495.584 192.885 493.632C193.973 491.68 195.445 490.16 197.301 489.072C199.189 487.984 201.301 487.44 203.637 487.44C205.973 487.44 208.069 487.984 209.925 489.072C211.781 490.16 213.237 491.68 214.293 493.632C215.349 495.552 215.877 497.76 215.877 500.256L215.829 501.312ZM203.637 490.368C201.205 490.368 199.157 491.152 197.493 492.72C195.861 494.256 194.933 496.272 194.709 498.768H212.613C212.389 496.272 211.445 494.256 209.781 492.72C208.149 491.152 206.101 490.368 203.637 490.368ZM250.688 513.168C247.36 513.168 244.352 512.432 241.664 510.96C239.008 509.488 236.912 507.456 235.376 504.864C233.872 502.24 233.12 499.312 233.12 496.08C233.12 492.848 233.872 489.936 235.376 487.344C236.912 484.72 239.024 482.672 241.712 481.2C244.4 479.728 247.408 478.992 250.736 478.992C253.232 478.992 255.536 479.408 257.648 480.24C259.76 481.072 261.552 482.288 263.024 483.888L260.768 486.144C258.144 483.488 254.832 482.16 250.832 482.16C248.176 482.16 245.76 482.768 243.584 483.984C241.408 485.2 239.696 486.864 238.448 488.976C237.232 491.088 236.624 493.456 236.624 496.08C236.624 498.704 237.232 501.072 238.448 503.184C239.696 505.296 241.408 506.96 243.584 508.176C245.76 509.392 248.176 510 250.832 510C254.864 510 258.176 508.656 260.768 505.968L263.024 508.224C261.552 509.824 259.744 511.056 257.6 511.92C255.488 512.752 253.184 513.168 250.688 513.168ZM282.74 487.44C285.908 487.44 288.42 488.368 290.276 490.224C292.164 492.048 293.108 494.72 293.108 498.24V512.88H289.7V498.576C289.7 495.952 289.044 493.952 287.732 492.576C286.42 491.2 284.548 490.512 282.116 490.512C279.396 490.512 277.236 491.328 275.636 492.96C274.068 494.56 273.284 496.784 273.284 499.632V512.88H269.876V477.264H273.284V492.048C274.212 490.576 275.492 489.44 277.124 488.64C278.756 487.84 280.628 487.44 282.74 487.44ZM324.438 501.312H303.318C303.51 503.936 304.518 506.064 306.342 507.696C308.166 509.296 310.47 510.096 313.254 510.096C314.822 510.096 316.262 509.824 317.574 509.28C318.886 508.704 320.022 507.872 320.982 506.784L322.902 508.992C321.782 510.336 320.374 511.36 318.678 512.064C317.014 512.768 315.174 513.12 313.158 513.12C310.566 513.12 308.262 512.576 306.246 511.488C304.262 510.368 302.71 508.832 301.59 506.88C300.47 504.928 299.91 502.72 299.91 500.256C299.91 497.792 300.438 495.584 301.494 493.632C302.582 491.68 304.054 490.16 305.91 489.072C307.798 487.984 309.91 487.44 312.246 487.44C314.582 487.44 316.678 487.984 318.534 489.072C320.39 490.16 321.846 491.68 322.902 493.632C323.958 495.552 324.486 497.76 324.486 500.256L324.438 501.312ZM312.246 490.368C309.814 490.368 307.766 491.152 306.102 492.72C304.47 494.256 303.542 496.272 303.318 498.768H321.222C320.998 496.272 320.054 494.256 318.39 492.72C316.758 491.152 314.71 490.368 312.246 490.368ZM341.887 513.12C339.391 513.12 337.151 512.576 335.167 511.488C333.215 510.4 331.679 508.88 330.559 506.928C329.439 504.944 328.879 502.72 328.879 500.256C328.879 497.792 329.439 495.584 330.559 493.632C331.679 491.68 333.215 490.16 335.167 489.072C337.151 487.984 339.391 487.44 341.887 487.44C344.063 487.44 345.999 487.872 347.695 488.736C349.423 489.568 350.783 490.8 351.775 492.432L349.231 494.16C348.399 492.912 347.343 491.984 346.063 491.376C344.783 490.736 343.391 490.416 341.887 490.416C340.063 490.416 338.415 490.832 336.943 491.664C335.503 492.464 334.367 493.616 333.535 495.12C332.735 496.624 332.335 498.336 332.335 500.256C332.335 502.208 332.735 503.936 333.535 505.44C334.367 506.912 335.503 508.064 336.943 508.896C338.415 509.696 340.063 510.096 341.887 510.096C343.391 510.096 344.783 509.792 346.063 509.184C347.343 508.576 348.399 507.648 349.231 506.4L351.775 508.128C350.783 509.76 349.423 511.008 347.695 511.872C345.967 512.704 344.031 513.12 341.887 513.12ZM367.455 500.208L361.503 505.68V512.88H358.095V477.264H361.503V501.408L376.575 487.632H380.799L369.999 497.952L381.807 512.88H377.631L367.455 500.208ZM87.6545 546.632L75.0305 574.904C74.0065 577.272 72.8225 578.952 71.4785 579.944C70.1345 580.936 68.5185 581.432 66.6305 581.432C65.4145 581.432 64.2785 581.24 63.2225 580.856C62.1665 580.472 61.2545 579.896 60.4865 579.128L62.0705 576.584C63.3505 577.864 64.8865 578.504 66.6785 578.504C67.8305 578.504 68.8065 578.184 69.6065 577.544C70.4385 576.904 71.2065 575.816 71.9105 574.28L73.0145 571.832L61.7345 546.632H65.2865L74.7905 568.088L84.2945 546.632H87.6545ZM102.071 572.12C99.639 572.12 97.447 571.576 95.495 570.488C93.543 569.368 92.007 567.832 90.887 565.88C89.767 563.928 89.207 561.72 89.207 559.256C89.207 556.792 89.767 554.584 90.887 552.632C92.007 550.68 93.543 549.16 95.495 548.072C97.447 546.984 99.639 546.44 102.071 546.44C104.503 546.44 106.695 546.984 108.647 548.072C110.599 549.16 112.119 550.68 113.207 552.632C114.327 554.584 114.887 556.792 114.887 559.256C114.887 561.72 114.327 563.928 113.207 565.88C112.119 567.832 110.599 569.368 108.647 570.488C106.695 571.576 104.503 572.12 102.071 572.12ZM102.071 569.096C103.863 569.096 105.463 568.696 106.871 567.896C108.311 567.064 109.431 565.896 110.231 564.392C111.031 562.888 111.431 561.176 111.431 559.256C111.431 557.336 111.031 555.624 110.231 554.12C109.431 552.616 108.311 551.464 106.871 550.664C105.463 549.832 103.863 549.416 102.071 549.416C100.279 549.416 98.663 549.832 97.223 550.664C95.815 551.464 94.695 552.616 93.863 554.12C93.063 555.624 92.663 557.336 92.663 559.256C92.663 561.176 93.063 562.888 93.863 564.392C94.695 565.896 95.815 567.064 97.223 567.896C98.663 568.696 100.279 569.096 102.071 569.096ZM144.597 546.632V571.88H141.333V567.272C140.437 568.808 139.205 570.008 137.637 570.872C136.069 571.704 134.277 572.12 132.261 572.12C128.965 572.12 126.357 571.208 124.437 569.384C122.549 567.528 121.605 564.824 121.605 561.272V546.632H125.013V560.936C125.013 563.592 125.669 565.608 126.981 566.984C128.293 568.36 130.165 569.048 132.597 569.048C135.253 569.048 137.349 568.248 138.885 566.648C140.421 565.016 141.189 562.76 141.189 559.88V546.632H144.597ZM157.406 551.576C158.206 549.88 159.39 548.6 160.958 547.736C162.558 546.872 164.526 546.44 166.862 546.44V549.752L166.046 549.704C163.39 549.704 161.31 550.52 159.806 552.152C158.302 553.784 157.55 556.072 157.55 559.016V571.88H154.142V546.632H157.406V551.576ZM210.45 568.808V571.88H186.69V538.28H209.73V541.352H190.242V553.304H207.618V556.328H190.242V568.808H210.45ZM249.567 546.44C252.735 546.44 255.215 547.352 257.007 549.176C258.831 551 259.743 553.688 259.743 557.24V571.88H256.335V557.576C256.335 554.952 255.695 552.952 254.415 551.576C253.167 550.2 251.391 549.512 249.087 549.512C246.463 549.512 244.399 550.328 242.895 551.96C241.391 553.56 240.639 555.784 240.639 558.632V571.88H237.231V557.576C237.231 554.952 236.591 552.952 235.311 551.576C234.063 550.2 232.271 549.512 229.935 549.512C227.343 549.512 225.279 550.328 223.743 551.96C222.239 553.56 221.487 555.784 221.487 558.632V571.88H218.079V546.632H221.343V551.24C222.239 549.704 223.487 548.52 225.087 547.688C226.687 546.856 228.527 546.44 230.607 546.44C232.719 546.44 234.543 546.888 236.079 547.784C237.647 548.68 238.815 550.008 239.583 551.768C240.511 550.104 241.839 548.808 243.567 547.88C245.327 546.92 247.327 546.44 249.567 546.44ZM277.817 546.44C281.113 546.44 283.641 547.272 285.401 548.936C287.161 550.568 288.041 553 288.041 556.232V571.88H284.777V567.944C284.009 569.256 282.873 570.28 281.369 571.016C279.897 571.752 278.137 572.12 276.089 572.12C273.273 572.12 271.033 571.448 269.369 570.104C267.705 568.76 266.873 566.984 266.873 564.776C266.873 562.632 267.641 560.904 269.177 559.592C270.745 558.28 273.225 557.624 276.617 557.624H284.633V556.088C284.633 553.912 284.025 552.264 282.809 551.144C281.593 549.992 279.817 549.416 277.481 549.416C275.881 549.416 274.345 549.688 272.873 550.232C271.401 550.744 270.137 551.464 269.081 552.392L267.545 549.848C268.825 548.76 270.361 547.928 272.153 547.352C273.945 546.744 275.833 546.44 277.817 546.44ZM276.617 569.432C278.537 569.432 280.185 569 281.561 568.136C282.937 567.24 283.961 565.96 284.633 564.296V560.168H276.713C272.393 560.168 270.233 561.672 270.233 564.68C270.233 566.152 270.793 567.32 271.913 568.184C273.033 569.016 274.601 569.432 276.617 569.432ZM297.298 546.632H300.706V571.88H297.298V546.632ZM299.026 541.112C298.322 541.112 297.73 540.872 297.25 540.392C296.77 539.912 296.53 539.336 296.53 538.664C296.53 538.024 296.77 537.464 297.25 536.984C297.73 536.504 298.322 536.264 299.026 536.264C299.73 536.264 300.322 536.504 300.802 536.984C301.282 537.432 301.522 537.976 301.522 538.616C301.522 539.32 301.282 539.912 300.802 540.392C300.322 540.872 299.73 541.112 299.026 541.112ZM310.189 536.264H313.597V571.88H310.189V536.264ZM343.994 538.904C342.522 538.904 341.402 539.304 340.634 540.104C339.898 540.904 339.53 542.088 339.53 543.656V546.632H347.306V549.512H339.626V571.88H336.218V549.512H331.706V546.632H336.218V543.512C336.218 541.208 336.874 539.384 338.186 538.04C339.53 536.696 341.418 536.024 343.85 536.024C344.81 536.024 345.738 536.168 346.634 536.456C347.53 536.712 348.282 537.096 348.89 537.608L347.738 540.152C346.746 539.32 345.498 538.904 343.994 538.904ZM361.805 572.12C359.373 572.12 357.181 571.576 355.229 570.488C353.277 569.368 351.741 567.832 350.621 565.88C349.501 563.928 348.941 561.72 348.941 559.256C348.941 556.792 349.501 554.584 350.621 552.632C351.741 550.68 353.277 549.16 355.229 548.072C357.181 546.984 359.373 546.44 361.805 546.44C364.237 546.44 366.429 546.984 368.381 548.072C370.333 549.16 371.853 550.68 372.941 552.632C374.061 554.584 374.621 556.792 374.621 559.256C374.621 561.72 374.061 563.928 372.941 565.88C371.853 567.832 370.333 569.368 368.381 570.488C366.429 571.576 364.237 572.12 361.805 572.12ZM361.805 569.096C363.597 569.096 365.197 568.696 366.605 567.896C368.045 567.064 369.165 565.896 369.965 564.392C370.765 562.888 371.165 561.176 371.165 559.256C371.165 557.336 370.765 555.624 369.965 554.12C369.165 552.616 368.045 551.464 366.605 550.664C365.197 549.832 363.597 549.416 361.805 549.416C360.013 549.416 358.397 549.832 356.957 550.664C355.549 551.464 354.429 552.616 353.597 554.12C352.797 555.624 352.397 557.336 352.397 559.256C352.397 561.176 352.797 562.888 353.597 564.392C354.429 565.896 355.549 567.064 356.957 567.896C358.397 568.696 360.013 569.096 361.805 569.096ZM384.843 551.576C385.643 549.88 386.827 548.6 388.395 547.736C389.995 546.872 391.963 546.44 394.299 546.44V549.752L393.483 549.704C390.827 549.704 388.747 550.52 387.243 552.152C385.739 553.784 384.987 556.072 384.987 559.016V571.88H381.579V546.632H384.843V551.576ZM67.1585 597.28H80.8385C84.3905 597.28 87.5265 598 90.2465 599.44C92.9665 600.848 95.0785 602.832 96.5825 605.392C98.0865 607.92 98.8385 610.816 98.8385 614.08C98.8385 617.344 98.0865 620.256 96.5825 622.816C95.0785 625.344 92.9665 627.328 90.2465 628.768C87.5265 630.176 84.3905 630.88 80.8385 630.88H67.1585V597.28ZM80.6465 627.808C83.5905 627.808 86.1665 627.232 88.3745 626.08C90.5825 624.896 92.2945 623.28 93.5105 621.232C94.7265 619.152 95.3345 616.768 95.3345 614.08C95.3345 611.392 94.7265 609.024 93.5105 606.976C92.2945 604.896 90.5825 603.28 88.3745 602.128C86.1665 600.944 83.5905 600.352 80.6465 600.352H70.7105V627.808H80.6465ZM128.079 619.312H106.959C107.151 621.936 108.159 624.064 109.983 625.696C111.807 627.296 114.111 628.096 116.895 628.096C118.463 628.096 119.903 627.824 121.215 627.28C122.527 626.704 123.663 625.872 124.623 624.784L126.543 626.992C125.423 628.336 124.015 629.36 122.319 630.064C120.655 630.768 118.815 631.12 116.799 631.12C114.207 631.12 111.903 630.576 109.887 629.488C107.903 628.368 106.351 626.832 105.231 624.88C104.111 622.928 103.551 620.72 103.551 618.256C103.551 615.792 104.079 613.584 105.135 611.632C106.223 609.68 107.695 608.16 109.551 607.072C111.439 605.984 113.551 605.44 115.887 605.44C118.223 605.44 120.319 605.984 122.175 607.072C124.031 608.16 125.487 609.68 126.543 611.632C127.599 613.552 128.127 615.76 128.127 618.256L128.079 619.312ZM115.887 608.368C113.455 608.368 111.407 609.152 109.743 610.72C108.111 612.256 107.183 614.272 106.959 616.768H124.863C124.639 614.272 123.695 612.256 122.031 610.72C120.399 609.152 118.351 608.368 115.887 608.368ZM148.36 629.344C147.72 629.92 146.92 630.368 145.96 630.688C145.032 630.976 144.056 631.12 143.032 631.12C140.664 631.12 138.84 630.48 137.56 629.2C136.28 627.92 135.64 626.112 135.64 623.776V608.512H131.128V605.632H135.64V600.112H139.048V605.632H146.728V608.512H139.048V623.584C139.048 625.088 139.416 626.24 140.152 627.04C140.92 627.808 142.008 628.192 143.416 628.192C144.12 628.192 144.792 628.08 145.432 627.856C146.104 627.632 146.68 627.312 147.16 626.896L148.36 629.344ZM163.396 605.44C166.692 605.44 169.22 606.272 170.98 607.936C172.74 609.568 173.62 612 173.62 615.232V630.88H170.356V626.944C169.588 628.256 168.452 629.28 166.948 630.016C165.476 630.752 163.716 631.12 161.668 631.12C158.852 631.12 156.612 630.448 154.948 629.104C153.284 627.76 152.452 625.984 152.452 623.776C152.452 621.632 153.22 619.904 154.756 618.592C156.324 617.28 158.804 616.624 162.196 616.624H170.212V615.088C170.212 612.912 169.604 611.264 168.388 610.144C167.172 608.992 165.396 608.416 163.06 608.416C161.46 608.416 159.924 608.688 158.452 609.232C156.98 609.744 155.716 610.464 154.66 611.392L153.124 608.848C154.404 607.76 155.94 606.928 157.732 606.352C159.524 605.744 161.412 605.44 163.396 605.44ZM162.196 628.432C164.116 628.432 165.764 628 167.14 627.136C168.516 626.24 169.54 624.96 170.212 623.296V619.168H162.292C157.972 619.168 155.812 620.672 155.812 623.68C155.812 625.152 156.372 626.32 157.492 627.184C158.612 628.016 160.18 628.432 162.196 628.432ZM182.876 605.632H186.284V630.88H182.876V605.632ZM184.604 600.112C183.9 600.112 183.308 599.872 182.828 599.392C182.348 598.912 182.108 598.336 182.108 597.664C182.108 597.024 182.348 596.464 182.828 595.984C183.308 595.504 183.9 595.264 184.604 595.264C185.308 595.264 185.9 595.504 186.38 595.984C186.86 596.432 187.1 596.976 187.1 597.616C187.1 598.32 186.86 598.912 186.38 599.392C185.9 599.872 185.308 600.112 184.604 600.112ZM195.767 595.264H199.175V630.88H195.767V595.264ZM215.425 631.12C213.377 631.12 211.409 630.832 209.521 630.256C207.665 629.648 206.209 628.896 205.153 628L206.689 625.312C207.745 626.144 209.073 626.832 210.673 627.376C212.273 627.888 213.937 628.144 215.665 628.144C217.969 628.144 219.665 627.792 220.753 627.088C221.873 626.352 222.433 625.328 222.433 624.016C222.433 623.088 222.129 622.368 221.521 621.856C220.913 621.312 220.145 620.912 219.217 620.656C218.289 620.368 217.057 620.096 215.521 619.84C213.473 619.456 211.825 619.072 210.577 618.688C209.329 618.272 208.257 617.584 207.361 616.624C206.497 615.664 206.065 614.336 206.065 612.64C206.065 610.528 206.945 608.8 208.705 607.456C210.465 606.112 212.913 605.44 216.049 605.44C217.681 605.44 219.313 605.664 220.945 606.112C222.577 606.528 223.921 607.088 224.977 607.792L223.489 610.528C221.409 609.088 218.929 608.368 216.049 608.368C213.873 608.368 212.225 608.752 211.105 609.52C210.017 610.288 209.473 611.296 209.473 612.544C209.473 613.504 209.777 614.272 210.385 614.848C211.025 615.424 211.809 615.856 212.737 616.144C213.665 616.4 214.945 616.672 216.577 616.96C218.593 617.344 220.209 617.728 221.425 618.112C222.641 618.496 223.681 619.152 224.545 620.08C225.409 621.008 225.841 622.288 225.841 623.92C225.841 626.128 224.913 627.888 223.057 629.2C221.233 630.48 218.689 631.12 215.425 631.12ZM232.478 631.12C231.774 631.12 231.166 630.864 230.654 630.352C230.174 629.84 229.934 629.216 229.934 628.48C229.934 627.744 230.174 627.136 230.654 626.656C231.166 626.144 231.774 625.888 232.478 625.888C233.182 625.888 233.79 626.144 234.302 626.656C234.814 627.136 235.07 627.744 235.07 628.48C235.07 629.216 234.814 629.84 234.302 630.352C233.79 630.864 233.182 631.12 232.478 631.12Z" fill="black"/>
<defs>
<linearGradient id="paint0_linear" x1="185.337" y1="308.993" x2="185.337" y2="184.567" gradientUnits="userSpaceOnUse">
<stop stop-color="#808080" stop-opacity="0.25"/>
<stop offset="0.54" stop-color="#808080" stop-opacity="0.12"/>
<stop offset="1" stop-color="#808080" stop-opacity="0.1"/>
</linearGradient>
<linearGradient id="paint1_linear" x1="40068.2" y1="18968.5" x2="40068.2" y2="9376.36" gradientUnits="userSpaceOnUse">
<stop stop-color="#808080" stop-opacity="0.25"/>
<stop offset="0.54" stop-color="#808080" stop-opacity="0.12"/>
<stop offset="1" stop-color="#808080" stop-opacity="0.1"/>
</linearGradient>
<linearGradient id="paint2_linear" x1="89089.3" y1="163743" x2="89089.3" y2="18049.2" gradientUnits="userSpaceOnUse">
<stop stop-color="#808080" stop-opacity="0.25"/>
<stop offset="0.54" stop-color="#808080" stop-opacity="0.12"/>
<stop offset="1" stop-color="#808080" stop-opacity="0.1"/>
</linearGradient>
<linearGradient id="paint3_linear" x1="45897.6" y1="71658.1" x2="45897.6" y2="38589.7" gradientUnits="userSpaceOnUse">
<stop stop-color="#808080" stop-opacity="0.25"/>
<stop offset="0.54" stop-color="#808080" stop-opacity="0.12"/>
<stop offset="1" stop-color="#808080" stop-opacity="0.1"/>
</linearGradient>
<linearGradient id="paint4_linear" x1="94618.6" y1="24822.4" x2="94618.6" y2="22774.3" gradientUnits="userSpaceOnUse">
<stop stop-color="#808080" stop-opacity="0.25"/>
<stop offset="0.54" stop-color="#808080" stop-opacity="0.12"/>
<stop offset="1" stop-color="#808080" stop-opacity="0.1"/>
</linearGradient>
<linearGradient id="paint5_linear" x1="30336.5" y1="26736.2" x2="30336.5" y2="20185.7" gradientUnits="userSpaceOnUse">
<stop stop-color="#808080" stop-opacity="0.25"/>
<stop offset="0.54" stop-color="#808080" stop-opacity="0.12"/>
<stop offset="1" stop-color="#808080" stop-opacity="0.1"/>
</linearGradient>
<linearGradient id="paint6_linear" x1="24464.4" y1="28611" x2="24464.4" y2="23451.1" gradientUnits="userSpaceOnUse">
<stop stop-color="#808080" stop-opacity="0.25"/>
<stop offset="0.54" stop-color="#808080" stop-opacity="0.12"/>
<stop offset="1" stop-color="#808080" stop-opacity="0.1"/>
</linearGradient>
<linearGradient id="paint7_linear" x1="29751.2" y1="29563.5" x2="29751.2" y2="15643.3" gradientUnits="userSpaceOnUse">
<stop stop-color="#808080" stop-opacity="0.25"/>
<stop offset="0.54" stop-color="#808080" stop-opacity="0.12"/>
<stop offset="1" stop-color="#808080" stop-opacity="0.1"/>
</linearGradient>
<linearGradient id="paint8_linear" x1="35165.2" y1="23638.4" x2="35165.2" y2="15561.5" gradientUnits="userSpaceOnUse">
<stop stop-color="#808080" stop-opacity="0.25"/>
<stop offset="0.54" stop-color="#808080" stop-opacity="0.12"/>
<stop offset="1" stop-color="#808080" stop-opacity="0.1"/>
</linearGradient>
<linearGradient id="paint9_linear" x1="707.908" y1="634.105" x2="707.908" y2="509.449" gradientUnits="userSpaceOnUse">
<stop stop-color="#808080" stop-opacity="0.25"/>
<stop offset="0.54" stop-color="#808080" stop-opacity="0.12"/>
<stop offset="1" stop-color="#808080" stop-opacity="0.1"/>
</linearGradient>
<linearGradient id="paint10_linear" x1="33118.1" y1="19342.2" x2="33118.1" y2="9732.05" gradientUnits="userSpaceOnUse">
<stop stop-color="#808080" stop-opacity="0.25"/>
<stop offset="0.54" stop-color="#808080" stop-opacity="0.12"/>
<stop offset="1" stop-color="#808080" stop-opacity="0.1"/>
</linearGradient>
<linearGradient id="paint11_linear" x1="74816" y1="164428" x2="74816" y2="18460.3" gradientUnits="userSpaceOnUse">
<stop stop-color="#808080" stop-opacity="0.25"/>
<stop offset="0.54" stop-color="#808080" stop-opacity="0.12"/>
<stop offset="1" stop-color="#808080" stop-opacity="0.1"/>
</linearGradient>
<linearGradient id="paint12_linear" x1="39563.8" y1="72141.1" x2="39563.8" y2="39010.5" gradientUnits="userSpaceOnUse">
<stop stop-color="#808080" stop-opacity="0.25"/>
<stop offset="0.54" stop-color="#808080" stop-opacity="0.12"/>
<stop offset="1" stop-color="#808080" stop-opacity="0.1"/>
</linearGradient>
<linearGradient id="paint13_linear" x1="80326.9" y1="25199.8" x2="80326.9" y2="23147.8" gradientUnits="userSpaceOnUse">
<stop stop-color="#808080" stop-opacity="0.25"/>
<stop offset="0.54" stop-color="#808080" stop-opacity="0.12"/>
<stop offset="1" stop-color="#808080" stop-opacity="0.1"/>
</linearGradient>
<linearGradient id="paint14_linear" x1="688.901" y1="442.442" x2="688.901" y2="382.043" gradientUnits="userSpaceOnUse">
<stop stop-opacity="0.12"/>
<stop offset="0.55" stop-opacity="0.09"/>
<stop offset="1" stop-opacity="0.02"/>
</linearGradient>
<linearGradient id="paint15_linear" x1="30186" y1="19114.6" x2="30186" y2="12068.2" gradientUnits="userSpaceOnUse">
<stop stop-color="#808080" stop-opacity="0.25"/>
<stop offset="0.54" stop-color="#808080" stop-opacity="0.12"/>
<stop offset="1" stop-color="#808080" stop-opacity="0.1"/>
</linearGradient>
<linearGradient id="paint16_linear" x1="20176.8" y1="9806.47" x2="20182.4" y2="7395.69" gradientUnits="userSpaceOnUse">
<stop stop-opacity="0.12"/>
<stop offset="0.55" stop-opacity="0.09"/>
<stop offset="1" stop-opacity="0.02"/>
</linearGradient>
<linearGradient id="paint17_linear" x1="29021.7" y1="24019.8" x2="29021.7" y2="15927.7" gradientUnits="userSpaceOnUse">
<stop stop-color="#808080" stop-opacity="0.25"/>
<stop offset="0.54" stop-color="#808080" stop-opacity="0.12"/>
<stop offset="1" stop-color="#808080" stop-opacity="0.1"/>
</linearGradient>
<linearGradient id="paint18_linear" x1="25051.5" y1="27122.2" x2="25051.5" y2="20559.4" gradientUnits="userSpaceOnUse">
<stop stop-color="#808080" stop-opacity="0.25"/>
<stop offset="0.54" stop-color="#808080" stop-opacity="0.12"/>
<stop offset="1" stop-color="#808080" stop-opacity="0.1"/>
</linearGradient>
<linearGradient id="paint19_linear" x1="20280.4" y1="28997" x2="20280.4" y2="23827.8" gradientUnits="userSpaceOnUse">
<stop stop-color="#808080" stop-opacity="0.25"/>
<stop offset="0.54" stop-color="#808080" stop-opacity="0.12"/>
<stop offset="1" stop-color="#808080" stop-opacity="0.1"/>
</linearGradient>
<linearGradient id="paint20_linear" x1="30556.2" y1="10574.6" x2="30556.2" y2="8970.85" gradientUnits="userSpaceOnUse">
<stop stop-opacity="0.12"/>
<stop offset="0.55" stop-opacity="0.09"/>
<stop offset="1" stop-opacity="0.02"/>
</linearGradient>
<linearGradient id="paint21_linear" x1="28499.4" y1="28852.1" x2="29445.6" y2="27389" gradientUnits="userSpaceOnUse">
<stop stop-color="#808080" stop-opacity="0.25"/>
<stop offset="0.54" stop-color="#808080" stop-opacity="0.12"/>
<stop offset="1" stop-color="#808080" stop-opacity="0.1"/>
</linearGradient>
<clipPath id="clip0">
<rect width="337.349" height="325.465" fill="white"/>
</clipPath>
<clipPath id="clip1">
<rect width="337.349" height="325.465" fill="white" transform="translate(542.65 324.535)"/>
</clipPath>
</defs>
</svg>
