<svg width="616" height="588" viewBox="0 0 616 588" fill="none" xmlns="http://www.w3.org/2000/svg">
<g opacity="0.8">
<path d="M235.753 343.524H89.7671L88.2194 295.819C88.1524 293.751 88.5079 291.693 89.2613 289.785C90.0147 287.877 91.1482 286.165 92.5837 284.767C94.0192 283.369 95.7226 282.319 97.5768 281.687C99.4309 281.056 101.392 280.86 103.324 281.111L188.278 292.167H188.289C200.883 292.203 212.951 297.544 221.848 307.019C230.744 316.493 235.745 329.33 235.753 342.716V343.524Z" fill="#E17E51"/>
<path d="M170.687 174.308H68.8688C67.5147 174.308 66.1738 174.591 64.9226 175.141C63.6715 175.692 62.5348 176.499 61.5772 177.517C60.6197 178.534 59.8603 179.743 59.3422 181.072C58.8242 182.402 58.5577 183.827 58.5581 185.266V293.48C58.5577 294.919 58.8242 296.344 59.3422 297.674C59.8603 299.003 60.6197 300.212 61.5772 301.229C62.5348 302.247 63.6715 303.054 64.9226 303.605C66.1738 304.155 67.5147 304.438 68.8688 304.438H170.687C172.041 304.438 173.382 304.155 174.633 303.605C175.884 303.054 177.021 302.247 177.979 301.229C178.936 300.212 179.695 299.003 180.214 297.674C180.732 296.344 180.998 294.919 180.998 293.48V185.266C180.998 183.827 180.732 182.402 180.214 181.072C179.695 179.743 178.936 178.534 177.979 177.517C177.021 176.499 175.884 175.692 174.633 175.141C173.382 174.591 172.041 174.308 170.687 174.308V174.308Z" fill="#CCCCCC"/>
<path d="M147.756 255.226L99.6829 265.175C96.8313 265.762 93.8773 265.122 91.4688 263.397C89.0603 261.672 87.3941 259.001 86.8357 255.972L83.1404 235.804C82.5884 232.774 83.19 229.634 84.8134 227.074C86.4367 224.514 88.9492 222.743 91.7995 222.15L139.872 212.201C142.724 211.614 145.678 212.253 148.086 213.979C150.495 215.704 152.161 218.374 152.719 221.404L156.415 241.571C156.967 244.602 156.365 247.742 154.742 250.301C153.118 252.861 150.606 254.632 147.756 255.226Z" fill="#3F3D56"/>
<path d="M138.138 231.399L101.451 238.992C100.78 239.131 100.085 238.981 99.5179 238.575C98.951 238.169 98.5591 237.54 98.4284 236.827C98.2977 236.114 98.439 235.374 98.8211 234.772C99.2032 234.169 99.7948 233.753 100.466 233.614L137.153 226.021C137.824 225.882 138.52 226.032 139.086 226.438C139.653 226.844 140.045 227.473 140.176 228.186C140.306 228.9 140.165 229.639 139.783 230.241C139.401 230.844 138.809 231.26 138.138 231.399V231.399Z" fill="white"/>
<path d="M131.007 242.644L112.031 246.571C111.36 246.71 110.665 246.56 110.098 246.154C109.531 245.748 109.139 245.119 109.008 244.406C108.878 243.692 109.019 242.953 109.401 242.351C109.783 241.748 110.375 241.332 111.046 241.193L130.022 237.265C130.354 237.197 130.696 237.198 131.028 237.27C131.359 237.341 131.675 237.482 131.955 237.683C132.236 237.884 132.477 238.142 132.664 238.442C132.851 238.742 132.98 239.078 133.045 239.431C133.11 239.784 133.108 240.147 133.041 240.5C132.973 240.852 132.841 241.187 132.652 241.486C132.463 241.784 132.22 242.04 131.938 242.239C131.656 242.437 131.34 242.575 131.007 242.644Z" fill="white"/>
<path d="M180.998 185.266V199.649H58.5581V185.266C58.5577 183.827 58.8242 182.402 59.3422 181.072C59.8603 179.743 60.6197 178.534 61.5772 177.517C62.5348 176.499 63.6715 175.692 64.9226 175.141C66.1738 174.591 67.5147 174.308 68.8688 174.308H170.687C172.041 174.308 173.382 174.591 174.633 175.141C175.884 175.692 177.021 176.499 177.978 177.517C178.936 178.534 179.696 179.743 180.214 181.072C180.732 182.402 180.998 183.827 180.998 185.266Z" fill="#B3B3B3"/>
<path d="M425.497 204.153C424.79 201.728 423.591 199.497 421.986 197.618C420.38 195.738 418.406 194.256 416.202 193.275C413.999 192.294 411.621 191.838 409.234 191.94C406.847 192.042 404.51 192.699 402.388 193.864L262.31 140.45L256.141 177.642L395.772 218.451C397.851 222.11 401.12 224.832 404.961 226.101C408.801 227.369 412.946 227.096 416.61 225.334C420.274 223.572 423.202 220.442 424.84 216.538C426.478 212.634 426.712 208.228 425.497 204.153V204.153Z" fill="#FFB8B8"/>
<path opacity="0.2" d="M425.497 204.153C424.79 201.728 423.591 199.497 421.986 197.618C420.38 195.738 418.406 194.256 416.202 193.275C413.999 192.294 411.621 191.838 409.234 191.94C406.847 192.042 404.51 192.699 402.388 193.864L262.31 140.45L256.141 177.642L395.772 218.451C397.851 222.11 401.12 224.832 404.961 226.101C408.801 227.369 412.946 227.096 416.61 225.334C420.274 223.572 423.202 220.442 424.84 216.538C426.478 212.634 426.712 208.228 425.497 204.153V204.153Z" fill="black"/>
<path d="M287.174 147.227L273.946 183.955C273.57 185 272.986 185.946 272.234 186.73C271.483 187.513 270.581 188.115 269.59 188.495C268.6 188.875 267.544 189.024 266.495 188.931C265.446 188.838 264.428 188.506 263.511 187.957L231.363 168.726C226.343 166.649 222.304 162.541 220.13 157.304C217.956 152.066 217.825 146.126 219.765 140.786C221.705 135.445 225.558 131.141 230.48 128.815C235.402 126.49 240.991 126.333 246.021 128.38L281.92 136.842C282.948 137.085 283.914 137.56 284.753 138.235C285.593 138.911 286.285 139.77 286.784 140.756C287.283 141.742 287.576 142.83 287.643 143.946C287.71 145.063 287.55 146.182 287.174 147.227V147.227Z" fill="#E17E51"/>
<path d="M436.524 238.161L386.331 262.408L392.921 288.775C405.646 339.692 409.024 392.738 402.868 445.012V445.012L439.566 453.158L469.985 370.715L459.338 276.957L436.524 238.161Z" fill="#E17E51"/>
<path d="M535.007 360.208C502.029 360.208 475.154 385.687 473.85 417.594H596.165C594.861 385.687 567.986 360.208 535.007 360.208Z" fill="#3F3D56"/>
<path d="M509.335 365.707C507.619 221.677 430.439 234.927 430.439 234.927C430.439 234.927 431.883 279.759 432.577 281.153C481.759 380.051 400.59 495.995 297.27 474.665C295.322 474.263 293.45 473.855 291.655 473.441C278.564 470.536 267.005 462.44 259.33 450.8C251.655 439.16 248.441 424.85 250.34 410.78C260.518 323.916 209.896 325.453 209.896 325.453H135.875L97.4346 288.683C96.0777 287.386 94.4423 286.461 92.6714 285.99C90.9005 285.519 89.048 285.516 87.276 285.982C85.5039 286.448 83.8662 287.368 82.5061 288.662C81.1459 289.956 80.1048 291.585 79.4737 293.405L74.5283 307.671C74.5283 307.671 1.52085 315.754 7.6048 391.73H30.176C30.1215 393.889 30.2029 396.049 30.4196 398.196L198.87 396.741C208.744 396.655 217.46 405.159 217.501 415.653C217.511 418.208 217.036 420.739 216.105 423.095C215.173 425.45 213.804 427.582 212.08 429.362C210.356 431.142 208.311 432.534 206.069 433.455C203.826 434.376 201.432 434.807 199.029 434.722L171.872 433.76C163.506 473.364 184.039 500.037 206.664 516.808C227.966 532.37 253.242 540.621 279.09 540.45H352.869C448.691 540.45 465.422 454.774 465.422 454.774C515.615 432.143 509.335 365.707 509.335 365.707Z" fill="#3F3D56"/>
<path d="M530.444 587.329C577.695 587.329 616 546.619 616 496.4C616 446.181 577.695 405.47 530.444 405.47C483.193 405.47 444.889 446.181 444.889 496.4C444.889 546.619 483.193 587.329 530.444 587.329Z" fill="#3F3D56"/>
<path d="M530.445 518.686C542.026 518.686 551.414 508.708 551.414 496.4C551.414 484.091 542.026 474.113 530.445 474.113C518.863 474.113 509.475 484.091 509.475 496.4C509.475 508.708 518.863 518.686 530.445 518.686Z" fill="white"/>
<path d="M98.4839 587.329C152.875 587.329 196.968 540.467 196.968 482.659C196.968 424.852 152.875 377.99 98.4839 377.99C44.0928 377.99 0 424.852 0 482.659C0 540.467 44.0928 587.329 98.4839 587.329Z" fill="#3F3D56"/>
<path d="M98.4839 508.314C111.815 508.314 122.622 496.828 122.622 482.659C122.622 468.491 111.815 457.005 98.4839 457.005C85.1527 457.005 74.3457 468.491 74.3457 482.659C74.3457 496.828 85.1527 508.314 98.4839 508.314Z" fill="white"/>
<path d="M386.474 269.573L368.414 217.441C367.473 214.724 367.044 211.836 367.153 208.943C367.262 206.05 367.906 203.208 369.048 200.58C370.19 197.951 371.808 195.588 373.81 193.624C375.812 191.66 378.158 190.134 380.714 189.134L432.489 168.877C436.987 167.117 441.767 166.315 446.556 166.518C451.346 166.721 456.051 167.925 460.403 170.061C464.754 172.196 468.668 175.222 471.919 178.965C475.171 182.708 477.697 187.095 479.353 191.876C480.847 196.166 481.61 200.705 481.606 205.28C481.587 211.09 480.35 216.821 477.985 222.058C475.62 227.296 472.187 231.907 467.936 235.558C464.864 238.177 461.412 240.245 457.714 241.683L386.474 269.573Z" fill="#3F3D56"/>
<path d="M480.845 205.28C480.841 210.971 479.636 216.588 477.32 221.719C475.003 226.85 471.634 231.363 467.46 234.927C461.056 233.132 455.096 229.876 449.996 225.385C444.895 220.895 440.776 215.278 437.925 208.924C435.073 202.571 433.558 195.634 433.484 188.595C433.41 181.556 434.78 174.585 437.497 168.165C442.714 166.959 448.119 167.011 453.314 168.315C458.51 169.62 463.365 172.145 467.523 175.705C471.68 179.264 475.035 183.769 477.34 188.887C479.646 194.004 480.843 199.606 480.845 205.28V205.28Z" fill="#E17E51"/>
<path d="M302.009 472.032H320.656L329.528 420.632L302.006 420.633L302.009 472.032Z" fill="#FFB8B8"/>
<path d="M297.252 465.562L333.974 465.56H333.976C337.049 465.56 340.092 466.204 342.932 467.454C345.771 468.704 348.351 470.536 350.524 472.845C352.697 475.155 354.421 477.897 355.597 480.914C356.773 483.932 357.379 487.166 357.379 490.433V491.241L297.253 491.243L297.252 465.562Z" fill="#2F2E41"/>
<path d="M323.653 450.936C323.436 450.936 323.218 450.925 322.999 450.903L297.193 448.906C296.15 448.803 295.142 448.447 294.249 447.864C293.355 447.282 292.599 446.49 292.039 445.548C291.48 444.606 291.131 443.541 291.02 442.433C290.909 441.325 291.039 440.205 291.399 439.159L325.936 356.693C326.183 355.958 326.283 355.176 326.232 354.398C326.181 353.619 325.978 352.86 325.637 352.169C325.297 351.469 324.822 350.854 324.242 350.364C323.662 349.873 322.992 349.519 322.274 349.324C306.034 344.812 264.367 332.799 228.298 318.743C212.845 312.72 203.112 304.017 199.37 292.875C194.437 278.186 201.735 264.79 202.048 264.228L202.293 263.787L236.233 267.066L273.028 270.392L353.66 316.346C360.417 320.23 365.549 326.675 368.035 334.399C370.52 342.124 370.177 350.56 367.073 358.027L329.899 446.625C329.361 447.908 328.485 448.998 327.377 449.763C326.268 450.528 324.975 450.935 323.653 450.936Z" fill="#2F2E41"/>
<path d="M242.135 103.912C262.767 103.912 279.492 86.1361 279.492 64.2085C279.492 42.281 262.767 24.5051 242.135 24.5051C221.503 24.5051 204.778 42.281 204.778 64.2085C204.778 86.1361 221.503 103.912 242.135 103.912Z" fill="#FFB8B8"/>
<path d="M291.362 476.882H310.009L318.881 425.481L291.359 425.483L291.362 476.882Z" fill="#FFB8B8"/>
<path d="M286.605 470.412L323.327 470.41H323.329C326.402 470.41 329.445 471.053 332.285 472.303C335.124 473.553 337.704 475.385 339.877 477.695C342.05 480.004 343.774 482.746 344.95 485.764C346.126 488.782 346.732 492.016 346.732 495.282V496.09L286.606 496.093L286.605 470.412Z" fill="#2F2E41"/>
<path d="M313.007 455.786C312.79 455.786 312.572 455.774 312.353 455.752L286.547 453.755C285.503 453.652 284.496 453.296 283.602 452.714C282.709 452.132 281.953 451.339 281.393 450.398C280.833 449.456 280.484 448.39 280.373 447.282C280.262 446.175 280.392 445.055 280.753 444.009L315.289 361.543C315.536 360.807 315.637 360.026 315.585 359.247C315.534 358.469 315.332 357.71 314.991 357.018C314.651 356.319 314.175 355.704 313.596 355.213C313.016 354.723 312.345 354.369 311.628 354.174C295.388 349.662 253.72 337.649 217.651 323.592C202.198 317.57 192.465 308.867 188.724 297.725C183.791 283.036 191.088 269.639 191.401 269.077L191.646 268.637L225.587 271.916L262.381 275.242L343.014 321.196C349.77 325.079 354.902 331.525 357.388 339.249C359.874 346.973 359.53 355.409 356.427 362.877L319.252 451.474C318.715 452.757 317.839 453.847 316.73 454.612C315.622 455.378 314.329 455.785 313.007 455.786Z" fill="#2F2E41"/>
<path d="M253.656 126.426L214.11 111.877C214.11 111.877 189.284 132.148 201.21 182.436C207.437 208.386 205.623 235.779 196.039 260.546C194.885 263.611 193.555 266.597 192.056 269.488C192.056 269.488 236.164 326.066 277.231 284.036L261.261 202.402C261.261 202.402 286.357 148.249 253.656 126.426Z" fill="#E17E51"/>
<path d="M246.773 105.262C241.456 96.8041 237.26 85.0759 243.113 77.0282C248.892 69.0844 260.289 70.2547 269.138 66.7396C281.465 61.8437 288.613 46.4534 286.384 32.6704C284.154 18.8874 273.744 7.46171 261.342 2.78668C248.94 -1.88834 234.955 -0.367914 222.811 5.01567C207.86 11.6429 195.036 24.4629 189.658 40.7024C184.28 56.9419 187.155 76.4406 198.311 88.9226C210.272 102.305 229.044 105.871 246.409 105.655" fill="#2F2E41"/>
<path d="M212.023 33.1129C205.323 38.9095 195.102 36.3349 187.91 31.2477C180.718 26.1604 174.883 18.9164 167.101 14.9278C153.383 7.89601 136.798 12.5705 123.447 20.3595C110.095 28.1484 98.2602 38.909 84.1575 45.0214C70.0548 51.1337 52.0587 51.4358 41.38 39.8944C38.7521 47.9864 38.5372 56.7431 40.7648 64.9697C42.9924 73.1963 47.5539 80.4921 53.8269 85.8616C60.0999 91.2312 67.779 94.4131 75.8163 94.973C83.8536 95.533 91.8577 93.4438 98.7366 88.9905C114.189 78.9868 122.724 58.012 140.056 52.4905C149.646 49.4352 159.945 51.896 169.638 54.5614C179.331 57.2267 189.437 60.1067 199.219 57.8377C209.001 55.5686 218.151 46.226 216.907 35.6675L212.023 33.1129Z" fill="#2F2E41"/>
<path d="M423.639 202.536C422.656 200.222 421.208 198.165 419.396 196.511C417.584 194.856 415.453 193.644 413.153 192.959C410.852 192.275 408.439 192.135 406.082 192.549C403.725 192.963 401.483 193.921 399.512 195.356L254.304 160.718L252.499 198.435L395.802 220.623C398.289 223.981 401.849 226.253 405.808 227.009C409.766 227.764 413.848 226.95 417.279 224.72C420.71 222.491 423.253 219.001 424.425 214.912C425.597 210.824 425.318 206.42 423.639 202.536V202.536Z" fill="#FFB8B8"/>
<path d="M279.763 164.183L270.9 202.365C270.648 203.451 270.179 204.467 269.524 205.343C268.869 206.22 268.044 206.935 267.106 207.442C266.167 207.949 265.136 208.235 264.085 208.28C263.033 208.325 261.984 208.129 261.009 207.705L226.875 192.837C221.649 191.437 217.16 187.891 214.391 182.978C211.623 178.064 210.802 172.184 212.108 166.627C213.414 161.071 216.741 156.292 221.358 153.339C225.975 150.386 231.506 149.501 236.737 150.877L273.344 154.567C274.392 154.673 275.406 155.018 276.318 155.578C277.229 156.138 278.016 156.9 278.626 157.813C279.235 158.725 279.652 159.767 279.848 160.866C280.044 161.966 280.015 163.097 279.763 164.183V164.183Z" fill="#E17E51"/>
<path d="M406.864 232.503C412.744 232.503 417.511 227.437 417.511 221.187C417.511 214.938 412.744 209.871 406.864 209.871C400.984 209.871 396.217 214.938 396.217 221.187C396.217 227.437 400.984 232.503 406.864 232.503Z" fill="#E17E51"/>
</g>
</svg>
