<svg width="704" height="772" viewBox="0 0 704 772" fill="none" xmlns="http://www.w3.org/2000/svg">
<path d="M274.463 526C271.688 526 268.886 525.956 266.135 525.87L266.197 523.872C270.147 523.995 274.179 524.029 278.147 523.975L278.175 525.975C276.939 525.991 275.702 526 274.463 526ZM290.208 525.536L290.091 523.54C294.047 523.307 298.054 522.978 302 522.565L302.209 524.554C298.232 524.971 294.195 525.302 290.208 525.536V525.536ZM254.112 525.225C250.123 524.919 246.092 524.518 242.13 524.032L242.374 522.048C246.306 522.529 250.306 522.928 254.265 523.23L254.112 525.225ZM314.151 523.025L313.851 521.049C317.782 520.452 321.743 519.76 325.621 518.989L326.011 520.95C322.102 521.727 318.112 522.425 314.151 523.025V523.025ZM230.216 522.294C226.275 521.626 222.297 520.858 218.393 520.011L218.817 518.056C222.692 518.897 226.639 519.659 230.55 520.321L230.216 522.294ZM337.765 518.332L337.284 516.391C341.143 515.436 345.022 514.382 348.816 513.257L349.385 515.175C345.561 516.309 341.652 517.371 337.765 518.332V518.332ZM206.688 517.185C202.823 516.157 198.932 515.026 195.126 513.822L195.728 511.916C199.506 513.11 203.367 514.232 207.202 515.252L206.688 517.185ZM360.847 511.484L360.19 509.596C363.934 508.294 367.7 506.887 371.385 505.412L372.127 507.269C368.415 508.755 364.62 510.173 360.847 511.484H360.847ZM183.701 509.918C179.947 508.538 176.169 507.049 172.474 505.492L173.25 503.648C176.917 505.193 180.665 506.671 184.391 508.041L183.701 509.918ZM383.176 502.55L382.348 500.729C385.943 499.096 389.558 497.352 393.09 495.546L394 497.327C390.44 499.146 386.799 500.903 383.176 502.55H383.176ZM404.574 491.611L403.584 489.875C407.032 487.907 410.474 485.839 413.813 483.727L414.882 485.416C411.518 487.545 408.05 489.63 404.574 491.611H404.574ZM424.897 478.754L423.753 477.115C427 474.847 430.24 472.471 433.384 470.055L434.602 471.641C431.435 474.075 428.17 476.469 424.897 478.754ZM120.072 475.937C116.844 473.593 113.619 471.137 110.487 468.636L111.735 467.073C114.843 469.555 118.043 471.992 121.246 474.318L120.072 475.937ZM443.975 464.092L442.686 462.562C445.712 460.009 448.724 457.348 451.639 454.652L452.996 456.121C450.059 458.837 447.024 461.518 443.975 464.092H443.975ZM101.247 460.906C98.2402 458.273 95.2534 455.535 92.3696 452.767L93.7543 451.323C96.6166 454.071 99.5805 456.789 102.564 459.402L101.247 460.906ZM461.647 447.745L460.224 446.341C463.014 443.514 465.773 440.588 468.425 437.646L469.911 438.983C467.239 441.949 464.459 444.896 461.647 447.745ZM83.8744 444.233C81.1161 441.333 78.3919 438.335 75.7777 435.323L77.2884 434.013C79.8827 437.002 82.5858 439.977 85.3236 442.854L83.8744 444.233ZM477.767 429.854L476.223 428.584C478.743 425.517 481.224 422.352 483.6 419.175L485.202 420.372C482.809 423.573 480.308 426.764 477.768 429.853L477.767 429.854ZM68.0965 426.057C65.6195 422.927 63.1805 419.695 60.847 416.452L62.47 415.284C64.786 418.502 67.2064 421.709 69.6649 424.816L68.0965 426.057ZM492.196 410.56L490.542 409.437C492.772 406.152 494.957 402.772 497.034 399.389L498.739 400.436C496.644 403.845 494.443 407.251 492.196 410.56L492.196 410.56ZM54.0454 406.53C51.8662 403.189 49.7334 399.752 47.7055 396.31L49.4282 395.295C51.4409 398.71 53.5576 402.122 55.7202 405.436L54.0454 406.53ZM504.811 390.019L503.061 389.053C504.981 385.578 506.847 382.01 508.607 378.446L510.4 379.333C508.627 382.923 506.746 386.518 504.811 390.019V390.019ZM515.492 368.398L513.66 367.596C515.254 363.956 516.784 360.228 518.209 356.518L520.076 357.234C518.641 360.975 517.098 364.73 515.492 368.398V368.398ZM31.5898 364.083C30.0566 360.403 28.5883 356.639 27.226 352.893L29.1059 352.209C30.4574 355.927 31.9145 359.662 33.4355 363.313L31.5898 364.083ZM524.141 345.867L522.242 345.238C523.49 341.477 524.668 337.634 525.742 333.812L527.668 334.353C526.585 338.204 525.397 342.078 524.141 345.867ZM23.3735 341.484C22.1835 337.673 21.0654 333.779 20.0502 329.91L21.9848 329.402C22.9921 333.242 24.102 337.106 25.2826 340.889L23.3735 341.484ZM530.659 322.689L528.711 322.236C529.606 318.382 530.425 314.445 531.144 310.538L533.111 310.899C532.387 314.838 531.561 318.804 530.659 322.689V322.689ZM17.2651 318.195C16.4311 314.289 15.6762 310.309 15.0219 306.365L16.9946 306.037C17.6445 309.952 18.3935 313.901 19.2212 317.777L17.2651 318.195ZM535.018 299.012L533.035 298.74C533.573 294.823 534.027 290.829 534.386 286.868L536.378 287.048C536.017 291.04 535.559 295.064 535.018 299.012V299.012ZM13.3237 294.445C12.852 290.486 12.4648 286.454 12.1723 282.461L14.1674 282.314C14.457 286.278 14.8418 290.279 15.31 294.209L13.3237 294.445ZM537.192 275.036L535.194 274.946C535.372 270.983 535.463 266.964 535.463 263H537.463C537.463 266.994 537.372 271.044 537.192 275.036ZM11.5664 270.435C11.498 267.982 11.4634 265.48 11.4628 263C11.4628 261.461 11.476 259.925 11.5024 258.392L13.5024 258.427C13.476 259.948 13.4628 261.473 13.4628 263C13.4633 265.462 13.498 267.945 13.5654 270.38L11.5664 270.435ZM13.977 246.487L11.9809 246.362C12.2304 242.366 12.5752 238.33 13.0043 234.365L14.9926 234.581C14.5664 238.515 14.225 242.52 13.977 246.487H13.977ZM534.171 234.285C533.772 230.342 533.223 228.42 532.643 224.494L534.621 224.202C535.205 228.158 535.706 231.177 536.109 235.15L534.171 234.285ZM16.5497 222.734L14.5732 222.428C15.186 218.472 15.8979 214.484 16.6894 210.574L18.6494 210.971C17.8642 214.851 17.1576 218.808 16.5497 222.734ZM530.624 212.718C529.861 208.817 529.001 204.89 528.065 201.046L530.009 200.573C530.951 204.446 531.818 208.404 532.587 212.334L530.624 212.718ZM21.287 199.317L19.3471 198.831C20.3183 194.957 21.394 191.051 22.5444 187.221L24.4594 187.796C23.3183 191.597 22.2509 195.473 21.287 199.317ZM524.972 189.503C523.856 185.695 522.638 181.865 521.35 178.117L523.24 177.466C524.539 181.243 525.768 185.104 526.892 188.941L524.972 189.503ZM28.1718 176.403L26.2851 175.74C27.6142 171.959 29.0492 168.161 30.5502 164.449L32.4047 165.199C30.915 168.882 29.4906 172.652 28.1718 176.403V176.403ZM517.205 166.909C515.746 163.228 514.184 159.534 512.561 155.929L514.385 155.108C516.02 158.741 517.595 162.463 519.064 166.171L517.205 166.909ZM37.1484 154.206L35.331 153.371C37.0014 149.733 38.7792 146.085 40.6152 142.529L42.3925 143.446C40.5702 146.976 38.8061 150.596 37.1484 154.206ZM507.417 145.17C505.627 141.64 503.73 138.102 501.78 134.656L503.52 133.67C505.486 137.143 507.396 140.708 509.2 144.266L507.417 145.17ZM48.1254 132.941L46.392 131.943C48.3871 128.478 50.4911 125.011 52.6459 121.637L54.3315 122.713C52.1933 126.061 50.1049 129.503 48.1254 132.941V132.941ZM495.667 124.406C493.554 121.041 491.341 117.69 489.09 114.444L490.732 113.304C493.001 116.575 495.231 119.952 497.36 123.342L495.667 124.406ZM60.9985 112.782L59.3637 111.63C61.6694 108.36 64.08 105.101 66.5302 101.942L68.1103 103.168C65.6791 106.303 63.2861 109.537 60.9985 112.782ZM482.062 104.79C479.652 101.633 477.143 98.4951 474.601 95.4628L476.134 94.1782C478.694 97.2338 481.224 100.395 483.652 103.576L482.062 104.79ZM75.6518 93.8911L74.1293 92.5942C76.7167 89.5551 79.4135 86.5302 82.1445 83.6035L83.6064 84.9678C80.8964 87.8725 78.2201 90.8749 75.6518 93.8911ZM466.722 86.4829C464.035 83.5586 461.248 80.6601 458.439 77.8691L459.85 76.4502C462.68 79.2632 465.487 82.1831 468.194 85.1294L466.722 86.4829ZM91.9565 76.4189L90.558 74.9892C93.4179 72.1913 96.3774 69.4252 99.3534 66.768L100.685 68.2602C97.7319 70.8969 94.7948 73.642 91.9565 76.4189ZM449.774 69.6391C446.83 66.9687 443.79 64.3349 440.739 61.811L442.015 60.27C445.088 62.813 448.151 65.4667 451.118 68.1577L449.774 69.6391ZM109.775 60.5073L108.512 58.9565C111.605 56.4375 114.802 53.9531 118.014 51.5722L119.206 53.1787C116.018 55.5419 112.845 58.0073 109.775 60.5073ZM128.957 46.29L127.841 44.6308C131.151 42.4033 134.559 40.2221 137.971 38.1464L139.01 39.8554C135.625 41.915 132.243 44.08 128.957 46.29ZM149.345 33.8886L148.385 32.1337C151.887 30.2172 155.478 28.3578 159.058 26.6064L159.937 28.4033C156.385 30.1411 152.821 31.9863 149.345 33.8886ZM390.715 29.2548C387.156 27.4818 383.511 25.769 379.88 24.164L380.688 22.3349C384.348 23.9521 388.021 25.6782 391.607 27.4648L390.715 29.2548ZM170.767 23.4106L169.972 21.5756C173.632 19.9892 177.376 18.4677 181.1 17.0531L181.81 18.9232C178.114 20.3266 174.399 21.8364 170.767 23.4106ZM368.818 19.5761C365.115 18.1401 361.325 16.7699 357.553 15.5043L358.189 13.6078C361.99 14.8837 365.81 16.2641 369.541 17.7118L368.818 19.5761ZM193.075 14.9394L192.452 13.039C196.253 11.7929 200.131 10.6196 203.978 9.55268L204.512 11.4794C200.695 12.5385 196.847 13.7026 193.075 14.9394ZM346.139 11.9658C342.324 10.8784 338.434 9.86567 334.575 8.956L335.034 7.00971C338.923 7.92621 342.843 8.94671 346.687 10.0419L346.139 11.9658ZM216.097 8.55024L215.652 6.60053C219.548 5.71039 223.518 4.89936 227.449 4.19037L227.804 6.15815C223.902 6.86225 219.964 7.66694 216.097 8.55024ZM322.885 6.48334C318.99 5.75239 315.023 5.10199 311.094 4.55024L311.371 2.56977C315.331 3.12592 319.329 3.78119 323.254 4.51752L322.885 6.48334ZM239.609 4.30709L239.345 2.32467C243.304 1.79635 247.33 1.35201 251.311 1.00534L251.485 2.99752C247.534 3.34223 243.539 3.78266 239.609 4.30709ZM299.226 3.15963C295.286 2.78854 291.276 2.50241 287.307 2.31051L287.404 0.31251C291.403 0.50636 295.443 0.79445 299.413 1.16851L299.226 3.15963ZM263.411 2.23043L263.327 0.23243C267.003 0.0791095 270.749 0.00098 274.463 0L275.368 0.00147057L275.362 2.00147L274.463 2C270.777 2.00092 267.059 2.07856 263.411 2.23041V2.23043Z" fill="#3F3D56"/>
<path d="M596.241 94.2062V742.406C596.234 750.128 593.161 757.53 587.699 762.989C582.238 768.447 574.833 771.514 567.111 771.516H303.961C300.136 771.523 296.346 770.775 292.81 769.314C289.274 767.854 286.061 765.71 283.355 763.006C280.649 760.302 278.503 757.09 277.041 753.556C275.578 750.021 274.827 746.232 274.831 742.406V94.2062C274.831 90.3807 275.584 86.5926 277.048 83.0582C278.512 79.5239 280.657 76.3125 283.362 73.6074C286.067 70.9024 289.279 68.7567 292.813 67.2929C296.348 65.8291 300.136 65.0758 303.961 65.0762H343.341V70.1262C343.34 76.4872 345.866 82.5881 350.363 87.087C354.86 91.5859 360.96 94.1143 367.321 94.1162H501.161C506.281 94.1271 511.268 92.4858 515.381 89.4362C516.213 88.8314 517.001 88.1698 517.741 87.4562C520.084 85.2192 521.948 82.5297 523.22 79.5507C524.492 76.5717 525.146 73.3654 525.141 70.1262V65.0762H567.111C570.937 65.075 574.725 65.8277 578.26 67.2912C581.795 68.7547 585.007 70.9003 587.712 73.6055C590.417 76.3107 592.563 79.5225 594.026 83.0572C595.49 86.592 596.242 90.3804 596.241 94.2062V94.2062Z" fill="#3F3D56"/>
<path d="M557.768 298.746H313.304V484.746H557.768V298.746Z" fill="#E17E51"/>
<path d="M184.571 267.407C206.337 267.874 223.652 283.647 223.652 283.647C223.652 283.647 205.677 298.663 183.911 298.196C162.145 297.729 144.831 281.956 144.831 281.956C144.831 281.956 162.806 266.94 184.571 267.407Z" fill="#E17E51"/>
<path d="M75.144 193.109C94.8085 202.451 117.357 196.116 117.357 196.116C117.357 196.116 108.024 174.634 88.3593 165.292C68.6949 155.95 46.146 162.285 46.146 162.285C46.146 162.285 55.4796 183.767 75.144 193.109Z" fill="#E17E51"/>
<path d="M77.143 183.825C98.8234 181.844 117.8 195.572 117.8 195.572C117.8 195.572 101.626 212.512 79.9458 214.494C58.2653 216.475 39.2884 202.747 39.2884 202.747C39.2884 202.747 55.4625 185.806 77.143 183.825Z" fill="#3F3D56"/>
<path d="M156.617 187.579C154.539 209.25 168.182 228.288 168.182 228.288C168.182 228.288 185.195 212.19 187.273 190.518C189.351 168.847 175.707 149.809 175.707 149.809C175.707 149.809 158.695 165.907 156.617 187.579Z" fill="#3F3D56"/>
<path d="M258.721 320.489C247.35 339.054 251.262 362.147 251.262 362.147C251.262 362.147 273.611 355.14 284.983 336.575C296.354 318.01 292.442 294.917 292.442 294.917C292.442 294.917 270.093 301.924 258.721 320.489Z" fill="#3F3D56"/>
<path d="M225.731 522.337L227.388 521.217C221.547 512.74 218.357 502.718 218.225 492.425C218.271 477.367 225.667 463.44 232.82 449.971C234.148 447.471 235.471 444.979 236.744 442.489C242.087 432.334 246.345 421.644 249.448 410.596C260.543 369.366 249.619 320.723 220.229 280.474C196.913 248.545 162.157 220.625 113.975 195.119L113.039 196.886C160.947 222.248 195.481 249.976 218.614 281.654C247.651 321.417 258.455 369.426 247.516 410.077C244.45 420.989 240.243 431.548 234.964 441.579C233.695 444.06 232.376 446.542 231.054 449.033C223.787 462.717 216.273 476.866 216.225 492.419C216.357 503.114 219.666 513.528 225.731 522.337V522.337Z" fill="#3F3D56"/>
<path d="M19.0004 197.747C29.4938 197.747 38.0004 189.24 38.0004 178.747C38.0004 168.253 29.4938 159.747 19.0004 159.747C8.50699 159.747 0.000396729 168.253 0.000396729 178.747C0.000396729 189.24 8.50699 197.747 19.0004 197.747Z" fill="#3F3D56"/>
<path d="M286.462 487.161L167.193 477.222V302.294L286.462 296.331V487.161Z" fill="#E17E51"/>
<path d="M584.61 487.161L703.879 477.222V302.294L584.61 296.331V487.161Z" fill="#E17E51"/>
<path d="M476.994 368.56C473.446 365.494 469.072 363.544 464.42 362.953C459.769 362.361 455.046 363.155 450.844 365.235C447.194 367.001 443.268 368.124 439.237 368.556C439.136 359.825 440.739 351.158 443.955 343.04L444.483 341.679H437.473L437.272 342.415C436.491 345.285 435.875 348.198 435.429 351.14C435.05 349.865 434.559 348.626 433.962 347.437C429.045 337.688 417.684 333.701 417.203 333.537L416.234 333.205L415.925 334.181C415.772 334.666 412.224 346.171 417.141 355.92C420.661 362.9 427.484 366.926 431.252 368.71C426.482 368.403 421.82 367.156 417.534 365.041C414.862 363.663 411.855 363.067 408.859 363.32C405.864 363.573 403 364.665 400.596 366.47C387.508 376.416 380.001 390.995 380.001 406.47C380.001 426.798 393.165 445.414 413.539 453.896C415.377 454.659 417.348 455.05 419.338 455.048C422.101 455.048 424.813 454.305 427.189 452.895C430.347 451.058 433.934 450.087 437.587 450.079C441.241 450.072 444.832 451.028 447.997 452.853C450.044 454.06 452.344 454.775 454.714 454.942C457.085 455.109 459.462 454.723 461.658 453.814C481.913 445.299 495.001 426.715 495.001 406.47C495.001 391.979 488.605 378.516 476.994 368.56ZM439.003 343.679H441.577C438.682 351.432 437.206 359.644 437.221 367.92H436.761C436.142 359.771 436.9 351.576 439.003 343.679V343.679ZM418.927 355.02C415.194 347.619 416.831 338.798 417.555 335.821C420.378 337.006 428.436 340.923 432.176 348.337C435.908 355.737 434.272 364.557 433.548 367.535C430.723 366.347 422.659 362.419 418.927 355.02V355.02ZM460.882 451.971C458.974 452.76 456.908 453.095 454.847 452.948C452.787 452.802 450.789 452.179 449.012 451.128C445.537 449.122 441.595 448.071 437.583 448.079C433.571 448.088 429.633 449.156 426.167 451.176C424.394 452.231 422.399 452.859 420.341 453.011C418.283 453.163 416.217 452.834 414.308 452.051C394.682 443.88 382.001 425.988 382.001 406.47C382.001 391.626 389.22 377.627 401.806 368.063C404.22 366.239 407.166 365.256 410.192 365.263C412.427 365.262 414.63 365.795 416.617 366.818C422.095 369.432 428.082 370.806 434.152 370.842C440.222 370.878 446.225 369.575 451.734 367.026C455.584 365.121 459.911 364.395 464.173 364.938C468.435 365.48 472.441 367.269 475.691 370.078C486.853 379.648 493.001 392.572 493.001 406.47C493.001 425.908 480.393 443.768 460.882 451.971V451.971Z" fill="white"/>
<path d="M226.501 349.66V347.313H227.434V339.999C227.437 339.456 227.292 338.924 227.013 338.458C226.734 337.993 226.333 337.614 225.853 337.361C221.726 335.208 217.29 335.21 212.67 337.372C212.16 337.614 211.729 337.996 211.428 338.473C211.126 338.951 210.967 339.504 210.968 340.069V347.313H211.901V349.438C208.466 350.401 205.442 352.463 203.293 355.31C201.143 358.156 199.987 361.629 200.001 365.196V381.022L201.778 381.615L200.001 382.799V387.555L201.778 388.148L200.001 389.333V394.089L201.778 394.681L200.001 395.866V432.089C200.004 434.914 201.128 437.623 203.126 439.621C205.123 441.619 207.832 442.743 210.658 442.746H226.368C229.187 442.743 231.89 441.622 233.883 439.628C235.876 437.635 236.998 434.932 237.001 432.113V395.866L235.223 394.681L237.001 394.089V389.333L235.223 388.148L237.001 387.555V382.799L235.223 381.615L237.001 381.022V364.378C236.989 361.14 235.973 357.985 234.092 355.349C232.211 352.713 229.559 350.725 226.501 349.66V349.66ZM213.516 339.183C217.601 337.275 221.334 337.259 224.928 339.135C225.082 339.22 225.211 339.345 225.3 339.497C225.389 339.649 225.435 339.822 225.434 339.999V343.913H212.968V340.069C212.966 339.885 213.017 339.703 213.114 339.547C213.211 339.39 213.351 339.264 213.516 339.183V339.183ZM235.001 379.581L230.712 381.01L235.001 383.87V386.114L230.712 387.544L235.001 390.403V392.648L230.712 394.077L235.001 396.937V432.113C234.998 434.402 234.088 436.596 232.469 438.215C230.851 439.833 228.657 440.744 226.368 440.746H210.658C208.362 440.744 206.162 439.831 204.539 438.208C202.916 436.585 202.003 434.384 202.001 432.089V396.937L206.29 394.077L202.001 392.648V390.403L206.29 387.544L202.001 386.114V383.87L206.29 381.01L202.001 379.581V365.196C201.988 361.944 203.083 358.786 205.105 356.239C207.127 353.693 209.956 351.911 213.126 351.188L213.901 351.008V347.313H224.501V351.143L225.222 351.352C228.037 352.181 230.509 353.897 232.271 356.244C234.033 358.591 234.99 361.444 235.001 364.378V379.581Z" fill="white"/>
<path d="M696.564 377.048L691.529 376.041L692.715 373.67L690.405 373.208L690.804 370.807L688.283 370.386V368.108L686.237 367.523L688.179 365.096H684.809L685.513 363.338L683.021 362.923L683.867 359.959H681.171V357.194H680.171C677.02 357.194 675.263 360.936 674.686 362.435C657.294 365.468 606.795 400.446 601.031 404.469C598.636 403.692 595.085 405.513 594.344 405.917L593.17 406.557L594.863 408.25L594.358 409.764L597.466 410.929L596.785 412.63L598.742 414.262L596.984 415.581L599.63 417.169L599.165 419.489L602.12 419.912V422.234L603.836 422.578L602.98 425.576H604.885V427.947H606.745L607.588 430.473L608.453 430.299C610.465 429.896 612.187 427.113 612.861 425.879C629.611 422.89 681.325 386.506 686.359 382.943C692.235 383.647 694.394 382.077 694.626 381.892L695.582 381.127L693.298 379.225L696.564 377.048ZM686.23 380.911L685.841 380.858L685.519 381.086C684.948 381.492 628.234 421.672 612.066 423.981L611.548 424.056L611.313 424.524C610.693 425.788 609.856 426.933 608.84 427.906L608.186 425.947H606.885V423.576H605.631L606.355 421.043L604.12 420.596V418.178L601.542 417.809L601.868 416.179L600.562 415.395L601.965 414.344L599.181 412.024L600.081 409.774L596.866 408.568L597.152 407.711L596.531 407.089C598.033 406.465 599.849 406 600.63 406.467L601.187 406.802L601.719 406.429C602.286 406.031 658.615 366.632 675.564 364.321L676.197 364.235L676.385 363.624C676.676 362.679 677.712 360.291 679.171 359.474V361.959H681.217L680.482 364.528L682.732 364.903L681.854 367.096H684.017L682.798 368.621L686.283 369.617V372.08L688.504 372.45L688.114 374.79L689.756 375.118L688.57 377.489L691.437 378.062L689.961 379.046L692.084 380.816C690.155 381.208 688.171 381.24 686.23 380.911V380.911Z" fill="white"/>
<path d="M435.536 569.746C451.552 569.746 464.536 556.762 464.536 540.746C464.536 524.73 451.552 511.746 435.536 511.746C419.52 511.746 406.536 524.73 406.536 540.746C406.536 556.762 419.52 569.746 435.536 569.746Z" fill="#E17E51"/>
<path d="M453.795 537.882H438.4V522.487H432.672V537.882H417.277V543.61H432.672V559.005H438.4V543.61H453.795V537.882Z" fill="white"/>
<path d="M527.001 541.746L512.001 534.746V538.746H477.001V544.746H512.001V548.746L527.001 541.746Z" fill="white"/>
<path d="M344.072 541.746L359.072 534.746V538.746H394.072V544.746H359.072V548.746L344.072 541.746Z" fill="white"/>
<path d="M531.536 159.746H339.536V161.746H531.536V159.746Z" fill="white"/>
<path d="M532.001 705.746H340.001V707.746H532.001V705.746Z" fill="white"/>
</svg>
