<svg width="440" height="597" viewBox="0 0 440 597" fill="none" xmlns="http://www.w3.org/2000/svg">
<g opacity="0.8">
<path d="M424.119 597H15.8811C11.6706 596.995 7.63397 595.097 4.65672 591.724C1.67946 588.35 0.00473992 583.776 0 579.005V17.9947C0.00473992 13.2238 1.67946 8.64994 4.65672 5.27645C7.63397 1.90296 11.6706 0.00537074 15.8811 0H424.119C428.329 0.00537074 432.366 1.90296 435.343 5.27645C438.321 8.64994 439.995 13.2238 440 17.9947V579.005C439.995 583.776 438.321 588.35 435.343 591.724C432.366 595.097 428.329 596.995 424.119 597V597ZM15.8811 2.11702C12.166 2.12178 8.60424 3.79613 5.97725 6.77273C3.35026 9.74934 1.87257 13.7851 1.86837 17.9947V579.005C1.87257 583.215 3.35026 587.251 5.97725 590.227C8.60424 593.204 12.166 594.878 15.8811 594.883H424.119C427.834 594.878 431.396 593.204 434.023 590.227C436.65 587.251 438.127 583.215 438.132 579.005V17.9947C438.127 13.7851 436.65 9.74934 434.023 6.77273C431.396 3.79613 427.834 2.12178 424.119 2.11702H15.8811Z" fill="#3F3D56"/>
<path d="M439.066 44.0238H0.934082V46.1408H439.066V44.0238Z" fill="#3F3D56"/>
<path d="M22.4207 31.7553C26.5482 31.7553 29.8942 27.964 29.8942 23.2872C29.8942 18.6104 26.5482 14.8191 22.4207 14.8191C18.2932 14.8191 14.9473 18.6104 14.9473 23.2872C14.9473 27.964 18.2932 31.7553 22.4207 31.7553Z" fill="#3F3D56"/>
<path d="M45.7752 31.7553C49.9027 31.7553 53.2487 27.964 53.2487 23.2872C53.2487 18.6104 49.9027 14.8191 45.7752 14.8191C41.6477 14.8191 38.3018 18.6104 38.3018 23.2872C38.3018 27.964 41.6477 31.7553 45.7752 31.7553Z" fill="#3F3D56"/>
<path d="M69.1297 31.7553C73.2572 31.7553 76.6032 27.964 76.6032 23.2872C76.6032 18.6104 73.2572 14.8191 69.1297 14.8191C65.0022 14.8191 61.6562 18.6104 61.6562 23.2872C61.6562 27.964 65.0022 31.7553 69.1297 31.7553Z" fill="#3F3D56"/>
<path d="M360.837 128.08H69.3719C66.151 128.08 63.0621 126.63 60.7845 124.049C58.507 121.469 57.2275 117.969 57.2275 114.319C57.2275 110.67 58.507 107.17 60.7845 104.589C63.0621 102.008 66.151 100.559 69.3719 100.559H360.837C364.058 100.559 367.147 102.008 369.424 104.589C371.702 107.17 372.981 110.67 372.981 114.319C372.981 117.969 371.702 121.469 369.424 124.049C367.147 126.63 364.058 128.08 360.837 128.08V128.08ZM69.3719 102.676C66.6465 102.676 64.0328 103.902 62.1057 106.086C60.1786 108.269 59.0959 111.231 59.0959 114.319C59.0959 117.407 60.1786 120.369 62.1057 122.552C64.0328 124.736 66.6465 125.963 69.3719 125.963H360.837C363.562 125.963 366.176 124.736 368.103 122.552C370.03 120.369 371.113 117.407 371.113 114.319C371.113 111.231 370.03 108.269 368.103 106.086C366.176 103.902 363.562 102.676 360.837 102.676H69.3719Z" fill="#3F3D56"/>
<path d="M178.429 321.787H63.5247C59.3142 321.782 55.2775 319.884 52.3003 316.511C49.323 313.137 47.6483 308.563 47.6436 303.793V196.883C47.6483 192.112 49.323 187.538 52.3003 184.165C55.2775 180.791 59.3142 178.894 63.5247 178.888H178.429C182.64 178.894 186.676 180.791 189.654 184.165C192.631 187.538 194.305 192.112 194.31 196.883V303.793C194.305 308.563 192.631 313.137 189.654 316.511C186.676 319.884 182.64 321.782 178.429 321.787V321.787ZM63.5247 181.005C59.8095 181.01 56.2478 182.684 53.6208 185.661C50.9938 188.638 49.5161 192.673 49.5119 196.883V303.793C49.5161 308.002 50.9938 312.038 53.6208 315.014C56.2478 317.991 59.8095 319.665 63.5247 319.67H178.429C182.144 319.665 185.706 317.991 188.333 315.014C190.96 312.038 192.438 308.002 192.442 303.793V196.883C192.438 192.673 190.96 188.638 188.333 185.661C185.706 182.684 182.144 181.01 178.429 181.005H63.5247Z" fill="#3F3D56"/>
<path d="M376.475 184.181H261.571C253.316 184.181 246.624 191.763 246.624 201.117V308.027C246.624 317.38 253.316 324.963 261.571 324.963H376.475C384.73 324.963 391.422 317.38 391.422 308.027V201.117C391.422 191.763 384.73 184.181 376.475 184.181Z" fill="#F2F2F2"/>
<path d="M178.429 520.787H63.5247C59.3142 520.782 55.2775 518.884 52.3003 515.511C49.323 512.137 47.6483 507.563 47.6436 502.793V395.883C47.6483 391.112 49.323 386.538 52.3003 383.165C55.2775 379.791 59.3142 377.894 63.5247 377.888H178.429C182.64 377.894 186.676 379.791 189.654 383.165C192.631 386.538 194.305 391.112 194.31 395.883V502.793C194.305 507.563 192.631 512.137 189.654 515.511C186.676 518.884 182.64 520.782 178.429 520.787V520.787ZM63.5247 380.005C59.8095 380.01 56.2478 381.684 53.6208 384.661C50.9938 387.638 49.5161 391.673 49.5119 395.883V502.793C49.5161 507.002 50.9938 511.038 53.6208 514.014C56.2478 516.991 59.8095 518.665 63.5247 518.67H178.429C182.144 518.665 185.706 516.991 188.333 514.014C190.96 511.038 192.438 507.002 192.442 502.793V395.883C192.438 391.673 190.96 387.638 188.333 384.661C185.706 381.684 182.144 380.01 178.429 380.005H63.5247Z" fill="#3F3D56"/>
<path d="M376.475 383.181H261.571C253.316 383.181 246.624 390.763 246.624 400.117V507.027C246.624 516.38 253.316 523.963 261.571 523.963H376.475C384.73 523.963 391.422 516.38 391.422 507.027V400.117C391.422 390.763 384.73 383.181 376.475 383.181Z" fill="#F2F2F2"/>
<path d="M92.3822 295.931C92.3614 295.931 92.3407 295.93 92.3199 295.929L79.2505 295.381C78.843 295.367 78.4537 295.186 78.1545 294.872C77.8553 294.559 77.6663 294.133 77.6225 293.674C76.723 284.58 73.0212 238.238 88.5291 218.977C90.7241 216.196 93.4379 214.004 96.4737 212.559C99.5095 211.114 102.791 210.453 106.08 210.623C106.214 210.633 106.347 210.601 106.466 210.531C106.585 210.461 106.684 210.355 106.754 210.225L109.918 204.592C110.091 204.286 110.336 204.042 110.626 203.887C110.915 203.731 111.237 203.671 111.555 203.712C114.092 204.059 127.022 205.699 132.459 203.915C132.78 203.808 133.121 203.81 133.441 203.922C133.76 204.033 134.044 204.249 134.256 204.542L138.41 210.295C138.482 210.399 138.574 210.482 138.68 210.538C138.785 210.593 138.901 210.619 139.017 210.614C141.13 210.565 148.54 211.029 155.024 219.248C162.046 228.147 169.293 248.225 163.939 293.339C163.883 293.803 163.682 294.227 163.371 294.536C163.061 294.844 162.662 295.015 162.249 295.016H151.956C151.548 295.014 151.153 294.847 150.844 294.544C150.535 294.241 150.332 293.822 150.271 293.364L146.909 267.075C146.881 266.859 146.783 266.663 146.633 266.525C146.484 266.387 146.294 266.318 146.102 266.332C145.909 266.345 145.729 266.44 145.595 266.597C145.462 266.755 145.385 266.964 145.381 267.182L145.149 279.525C145.142 279.891 145.043 280.247 144.864 280.552C144.685 280.857 144.433 281.098 144.138 281.247C140.468 283.075 121.08 291.649 99.6499 280.91C99.3601 280.763 99.1121 280.527 98.9335 280.229C98.7549 279.931 98.6527 279.583 98.6384 279.223L98.2172 268.009C98.2089 267.79 98.1281 267.582 97.9908 267.428C97.8535 267.274 97.6699 267.184 97.4766 267.176C97.2833 267.169 97.0946 267.244 96.9481 267.387C96.8017 267.53 96.7083 267.731 96.6866 267.948L94.0742 294.218C94.0256 294.688 93.8267 295.122 93.515 295.438C93.2032 295.753 92.8002 295.929 92.3822 295.931V295.931Z" fill="#E17E51"/>
<path d="M146.447 489.602H146.438L95.2246 489.235C94.8522 489.232 94.4937 489.075 94.2162 488.793C93.9387 488.512 93.7613 488.126 93.7173 487.707L88.5657 438.091C88.5343 437.771 88.4019 437.474 88.1929 437.256C87.9839 437.038 87.7123 436.912 87.4282 436.903C83.3624 436.753 73.6894 435.703 71.685 429.215C69.8997 423.437 74.7826 414.915 86.1978 403.884C86.392 403.696 86.6246 403.565 86.8746 403.505C87.1246 403.445 87.3838 403.457 87.6287 403.54C87.8736 403.623 88.0963 403.773 88.2764 403.979C88.4565 404.184 88.5884 404.437 88.66 404.715L94.5858 427.881C94.6582 428.159 94.8072 428.403 95.0112 428.578C95.2151 428.753 95.4633 428.849 95.719 428.852L144.277 429.222C144.531 429.225 144.78 429.135 144.985 428.965C145.191 428.795 145.343 428.554 145.418 428.279L152.012 404.507C152.085 404.242 152.214 404 152.387 403.803C152.56 403.606 152.773 403.459 153.006 403.375C153.24 403.291 153.489 403.272 153.73 403.32C153.972 403.368 154.2 403.481 154.395 403.649C158.894 407.543 173.388 420.911 171.003 429.46C169.753 433.938 164.118 436.434 154.253 436.879C153.969 436.89 153.699 437.016 153.491 437.234C153.283 437.452 153.151 437.747 153.119 438.066L147.965 488.072C147.922 488.494 147.743 488.883 147.463 489.165C147.184 489.447 146.822 489.603 146.447 489.602V489.602Z" fill="#E17E51"/>
<path d="M370.87 280.668C354.778 284.178 339.601 291.794 326.492 302.938C325.829 300.938 324.579 299.257 322.953 298.176C321.843 297.395 320.631 296.818 319.362 296.466C318.208 296.133 317.099 296.928 316.08 298.073C314.908 299.542 313.926 301.191 313.16 302.972C295.573 289.294 268.895 280.565 268.895 280.565V277.829C268.917 277.185 268.975 276.542 269.069 275.906C269.159 275.171 269.272 274.521 269.416 273.726C271.679 260.68 280.627 230.87 280.627 230.87H290.745L310.361 235.487L332.43 233.956L354.657 228.716L357.539 228.032C362.345 232.306 367.8 262.228 369.942 274.966C370.214 276.581 370.425 277.915 370.584 278.898C370.772 280.009 370.87 280.668 370.87 280.668Z" fill="white"/>
<path d="M310.5 411.992C310.5 411.992 305.8 413.323 298.512 435.691C291.224 458.059 288.642 486.959 288.642 486.959C288.642 486.959 284.543 494.822 302.037 495.349C302.037 495.349 300.629 500.542 310.5 499.745C320.37 498.947 318.949 498.955 318.949 498.955C318.949 498.955 325.295 494.428 328.116 495.225C330.937 496.022 332.699 496.293 335.752 499.218C338.806 502.144 348.567 500.952 348.683 498.692C348.761 497.582 348.761 496.466 348.683 495.356C348.683 495.356 363.608 496.424 360.787 484.172C357.966 471.921 355.616 451.813 355.616 451.813C355.616 451.813 347.979 412.534 339.277 412C330.575 411.466 310.5 411.992 310.5 411.992Z" fill="white"/>
</g>
</svg>
